<?xml version="1.0" encoding="utf-8"?>
<!-- Generator: Adobe Illustrator 27.5.0, SVG Export Plug-In . SVG Version: 6.00 Build 0)  -->
<svg version="1.1" id="Layer_1" xmlns="http://www.w3.org/2000/svg" xmlns:xlink="http://www.w3.org/1999/xlink" x="0px" y="0px"
	 viewBox="0 0 607 400" style="enable-background:new 0 0 607 400;" xml:space="preserve">
<g style="opacity:0.19;">
	<ellipse style="fill:#C4ADAD;" cx="302.5" cy="356.786" rx="288.5" ry="10.1"/>
</g>
<g>
	<g>
		
			<rect x="515.583" y="112.466" transform="matrix(-0.5811 0.8138 -0.8138 -0.5811 932.3444 -234.3934)" style="fill:#40507F;" width="21.83" height="20.586"/>
	</g>
	<g>
		<g>
			<path style="fill:#A37B90;" d="M519.889,110.715l18.549,13.244c0.807,0.577,1.938,0.305,2.396-0.575l12.031-23.113
				c0.376-0.722,0.163-1.61-0.499-2.082l-12.626-9.015c-0.662-0.473-1.571-0.386-2.132,0.204l-17.955,18.884
				C518.971,108.98,519.081,110.138,519.889,110.715z"/>
		</g>
		<g>
			<path style="fill:#EAD8D8;" d="M523.999,114.228c-0.145,0-0.289-0.054-0.401-0.162c-0.231-0.222-0.237-0.588-0.016-0.819
				l20.359-21.178c0.222-0.231,0.587-0.238,0.818-0.016c0.23,0.222,0.237,0.588,0.016,0.819l-20.359,21.178
				C524.303,114.169,524.151,114.228,523.999,114.228z"/>
		</g>
		<g>
			<path style="fill:#EAD8D8;" d="M534.565,121.772c-0.09,0-0.18-0.021-0.265-0.064c-0.284-0.146-0.397-0.495-0.25-0.78
				l13.421-26.133c0.146-0.285,0.496-0.396,0.779-0.25c0.284,0.146,0.396,0.495,0.25,0.78l-13.421,26.133
				C534.977,121.658,534.774,121.772,534.565,121.772z"/>
		</g>
	</g>
	<g>
		<path style="fill:#5C69A5;" d="M414.455,246.614l31.854,22.744l91.375-127.977c2.865-4.012,1.942-9.586-2.07-12.451
			l-17.335-12.377c-4.012-2.865-9.584-1.928-12.449,2.084L414.455,246.614z"/>
	</g>
	<g>
		<path style="fill:#40507F;" d="M443.761,272.933l5.175-7.248c0.794-1.112,0.536-2.657-0.576-3.451l-31.226-22.295
			c-1.112-0.794-2.657-0.536-3.451,0.576l-5.175,7.248c-0.794,1.112-0.536,2.657,0.576,3.451l31.226,22.295
			C441.422,274.302,442.967,274.044,443.761,272.933z"/>
	</g>
	<g>
		<path style="fill:#85A6D6;" d="M484.184,157.326c-0.116,0-0.233-0.035-0.336-0.108c-0.26-0.186-0.32-0.547-0.135-0.808l22-30.813
			c0.185-0.259,0.546-0.32,0.809-0.135c0.26,0.186,0.32,0.547,0.135,0.808l-22,30.813
			C484.543,157.242,484.365,157.326,484.184,157.326z"/>
	</g>
	<g>
		<path style="fill:#F4E6E6;" d="M453.778,231.157l13.119,9.367l46.748-65.474l-13.119-9.367c-2.153-1.537-5.145-1.038-6.683,1.115
			l-41.181,57.676C451.125,226.628,451.625,229.619,453.778,231.157z"/>
	</g>
</g>
<g>
	<g>
		<path style="fill:#D3BCBC;" d="M202.945,358.085H334.32c4.318,0,7.818-3.5,7.818-7.818v-90.008c0-4.318-3.5-7.818-7.818-7.818
			H202.945c-4.318,0-7.818,3.5-7.818,7.818v90.008C195.127,354.585,198.627,358.085,202.945,358.085z"/>
	</g>
	<g>
		<path style="fill:#EAD8D8;" d="M324.612,270.051h-97.452c-1.359,0-2.461-1.102-2.461-2.461v-20.24
			c0-5.731,4.663-10.395,10.395-10.395h81.584c5.732,0,10.395,4.663,10.395,10.395v20.24
			C327.073,268.949,325.972,270.051,324.612,270.051z M229.622,265.129h92.53V247.35c0-3.018-2.455-5.473-5.473-5.473h-81.584
			c-3.018,0-5.473,2.455-5.473,5.473V265.129z"/>
	</g>
	<g>
		<path style="fill:#EAD8D8;" d="M210.199,358.085h131.375c4.318,0,7.818-3.5,7.818-7.818v-90.008c0-4.318-3.5-7.818-7.818-7.818
			H210.199c-4.318,0-7.818,3.5-7.818,7.818v90.008C202.382,354.585,205.882,358.085,210.199,358.085z"/>
	</g>
	<g>
		<path style="fill:#D3BCBC;" d="M349.392,286.001h-147.01c-0.374,0-0.677-0.303-0.677-0.677c0-0.374,0.303-0.677,0.677-0.677
			h147.01c0.374,0,0.677,0.303,0.677,0.677C350.068,285.698,349.766,286.001,349.392,286.001z"/>
	</g>
	<g>
		<circle style="fill:#FFFFFF;" cx="275.887" cy="317.075" r="26.368"/>
	</g>
	<g>
		<g>
			<path style="fill:#92B4EA;" d="M274.635,331.685h2.502c0.955,0,1.729-0.774,1.729-1.729v-25.763c0-0.955-0.774-1.729-1.729-1.729
				h-2.502c-0.955,0-1.729,0.774-1.729,1.729v25.763C272.907,330.911,273.681,331.685,274.635,331.685z"/>
		</g>
		<g>
			<path style="fill:#92B4EA;" d="M261.276,315.824v2.502c0,0.955,0.774,1.729,1.729,1.729h25.763c0.955,0,1.729-0.774,1.729-1.729
				v-2.502c0-0.955-0.774-1.729-1.729-1.729h-25.763C262.05,314.095,261.276,314.869,261.276,315.824z"/>
		</g>
	</g>
</g>
<g>
	<g>
		<g>
			<path style="fill:#85A6D6;" d="M517.472,114.522h-62.74c-3.075,0-5.567,2.493-5.567,5.567v123.624
				c0,3.075,2.493,5.567,5.567,5.567h62.74c3.075,0,5.567-2.493,5.567-5.567V120.09C523.04,117.015,520.547,114.522,517.472,114.522
				z"/>
		</g>
		<g>
			<g>
				<path style="fill:#92B4EA;" d="M511.26,249.281h-62.74c-3.075,0-5.567-2.493-5.567-5.567V120.09
					c0-3.075,2.493-5.567,5.567-5.567h62.74c3.075,0,5.567,2.493,5.567,5.567v123.624
					C516.828,246.788,514.335,249.281,511.26,249.281z"/>
			</g>
			<g>
				<g>
					<g>
						
							<ellipse transform="matrix(0.231 -0.973 0.973 0.231 132.0184 629.6469)" style="fill:#C5DBF9;" cx="464.325" cy="231.308" rx="12.488" ry="12.488"/>
					</g>
					<g>
						<path style="fill:#92B4EA;" d="M458.746,243.049c-0.083,0-0.167-0.018-0.247-0.056c-0.289-0.137-0.413-0.481-0.276-0.77
							l10.655-22.566c0.137-0.289,0.481-0.414,0.77-0.276c0.289,0.137,0.413,0.481,0.276,0.771l-10.655,22.566
							C459.171,242.926,458.963,243.049,458.746,243.049z"/>
					</g>
				</g>
				<g>
					<g>
						
							<ellipse transform="matrix(0.1547 -0.988 0.988 0.1547 190.3033 685.0289)" style="fill:#C5DBF9;" cx="495.457" cy="231.308" rx="12.488" ry="12.488"/>
					</g>
					<g>
						<path style="fill:#92B4EA;" d="M489.877,243.049c-0.083,0-0.167-0.018-0.247-0.056c-0.289-0.137-0.413-0.481-0.276-0.77
							l10.656-22.566c0.137-0.289,0.481-0.414,0.77-0.276c0.289,0.137,0.413,0.481,0.276,0.771L490.4,242.717
							C490.302,242.926,490.094,243.049,489.877,243.049z"/>
					</g>
				</g>
			</g>
			<g>
				<g>
					<g>
						<circle style="fill:#C5DBF9;" cx="464.325" cy="198.075" r="12.488"/>
					</g>
					<g>
						<path style="fill:#92B4EA;" d="M458.746,209.815c-0.083,0-0.167-0.018-0.247-0.056c-0.289-0.137-0.413-0.481-0.276-0.77
							l10.655-22.567c0.137-0.29,0.481-0.415,0.77-0.276c0.289,0.136,0.413,0.481,0.276,0.771l-10.655,22.567
							C459.171,209.692,458.963,209.815,458.746,209.815z"/>
					</g>
				</g>
				<g>
					<g>
						<circle style="fill:#C5DBF9;" cx="495.457" cy="198.075" r="12.488"/>
					</g>
					<g>
						<path style="fill:#92B4EA;" d="M489.877,209.815c-0.083,0-0.167-0.018-0.247-0.056c-0.289-0.137-0.413-0.481-0.276-0.77
							l10.656-22.567c0.137-0.29,0.481-0.415,0.77-0.276c0.289,0.136,0.413,0.481,0.276,0.771L490.4,209.483
							C490.302,209.692,490.094,209.815,489.877,209.815z"/>
					</g>
				</g>
			</g>
			<g>
				<g>
					<g>
						<circle style="fill:#C5DBF9;" cx="464.325" cy="164.841" r="12.488"/>
					</g>
					<g>
						<path style="fill:#92B4EA;" d="M458.746,176.581c-0.083,0-0.167-0.018-0.247-0.056c-0.289-0.136-0.413-0.481-0.276-0.77
							l10.655-22.566c0.137-0.29,0.481-0.414,0.77-0.276c0.289,0.136,0.413,0.481,0.276,0.771l-10.655,22.566
							C459.171,176.459,458.963,176.581,458.746,176.581z"/>
					</g>
				</g>
				<g>
					<g>
						<circle style="fill:#C5DBF9;" cx="495.457" cy="164.841" r="12.488"/>
					</g>
					<g>
						<path style="fill:#92B4EA;" d="M489.877,176.581c-0.083,0-0.167-0.018-0.247-0.056c-0.289-0.136-0.413-0.481-0.276-0.77
							l10.656-22.566c0.137-0.29,0.481-0.414,0.77-0.276c0.289,0.136,0.413,0.481,0.276,0.771L490.4,176.249
							C490.302,176.459,490.094,176.581,489.877,176.581z"/>
					</g>
				</g>
			</g>
			<g>
				<g>
					<g>
						<circle style="fill:#C5DBF9;" cx="464.325" cy="131.608" r="12.488"/>
					</g>
					<g>
						<path style="fill:#92B4EA;" d="M458.746,143.348c-0.083,0-0.167-0.018-0.247-0.056c-0.289-0.136-0.413-0.481-0.276-0.77
							l10.655-22.566c0.137-0.29,0.481-0.414,0.77-0.276c0.289,0.136,0.413,0.481,0.276,0.771l-10.655,22.566
							C459.171,143.226,458.963,143.348,458.746,143.348z"/>
					</g>
				</g>
				<g>
					<g>
						<circle style="fill:#C5DBF9;" cx="495.457" cy="131.608" r="12.488"/>
					</g>
					<g>
						<path style="fill:#92B4EA;" d="M489.877,143.348c-0.083,0-0.167-0.018-0.247-0.056c-0.289-0.136-0.413-0.481-0.276-0.77
							l10.656-22.566c0.137-0.29,0.481-0.414,0.77-0.276c0.289,0.136,0.413,0.481,0.276,0.771L490.4,143.016
							C490.302,143.226,490.094,143.348,489.877,143.348z"/>
					</g>
				</g>
			</g>
		</g>
	</g>
	<g>
		<g>
			<path style="fill:#A37B90;" d="M399.487,136.667v73.09c0,6.66,5.39,12.06,12.05,12.06h41.89c6.66,0,12.06-5.4,12.06-12.06v-73.09
				c0-6.66-5.4-12.05-12.06-12.05h-41.89C404.877,124.617,399.487,130.007,399.487,136.667z"/>
		</g>
		<g>
			<path style="fill:#A37B90;" d="M412.484,131.738h40v-11.232c0-11.046-8.954-20-20-20c-11.046,0-20,8.954-20,20V131.738z"/>
		</g>
		<g>
			
				<rect x="423.863" y="91.326" transform="matrix(-1 -1.224647e-16 1.224647e-16 -1 864.9675 199.8946)" style="fill:#A37B90;" width="17.242" height="17.242"/>
		</g>
		<g>
			<path style="fill:#FFB164;" d="M425.419,94.093h14.129c3.094,0,5.602-2.508,5.602-5.602c0-3.094-2.508-5.602-5.602-5.602h-14.129
				c-3.094,0-5.602,2.508-5.602,5.602C419.817,91.585,422.325,94.093,425.419,94.093z"/>
		</g>
		<g>
			<path style="fill:#F7E8E8;" d="M412.487,156.719v36.337c0,2.392,1.939,4.332,4.332,4.332h48.668v-45h-48.668
				C414.426,152.387,412.487,154.327,412.487,156.719z"/>
		</g>
		<g>
			<path style="fill:#EAD8D8;" d="M417.15,119.966c-0.319,0-0.579-0.259-0.579-0.579c0-5.622,6.646-11.041,6.929-11.27
				c0.25-0.2,0.613-0.162,0.813,0.087c0.201,0.248,0.162,0.613-0.087,0.814c-0.065,0.052-6.497,5.301-6.497,10.368
				C417.729,119.707,417.47,119.966,417.15,119.966z"/>
		</g>
	</g>
	<g>
		<path style="fill:#FFB164;" d="M381.03,359.388h166.059c5.256,0,9.363-4.537,8.842-9.767l-15.919-159.714
			c-0.453-4.544-4.276-8.005-8.842-8.005H396.949c-4.566,0-8.389,3.461-8.842,8.005L372.188,349.62
			C371.667,354.85,375.774,359.388,381.03,359.388z"/>
	</g>
	<g>
		<path style="fill:#FFC088;" d="M369.697,359.388h166.059c5.256,0,9.363-4.537,8.842-9.767l-15.919-159.714
			c-0.453-4.544-4.276-8.005-8.842-8.005H385.615c-4.566,0-8.389,3.461-8.842,8.005L360.855,349.62
			C360.333,354.85,364.441,359.388,369.697,359.388z"/>
	</g>
	<g>
		<path style="fill:#5C69A5;" d="M511.646,202.97c-0.689,0-1.33-0.441-1.552-1.133l-4.701-14.67
			c-0.275-0.857,0.197-1.774,1.055-2.049c0.859-0.274,1.775,0.198,2.049,1.055l4.701,14.67c0.275,0.856-0.197,1.774-1.055,2.049
			C511.978,202.944,511.81,202.97,511.646,202.97z"/>
	</g>
	<g>
		<path style="fill:#5C69A5;" d="M394.945,202.97c-0.164,0-0.332-0.025-0.497-0.078c-0.857-0.274-1.329-1.192-1.055-2.049
			l4.701-14.67c0.274-0.856,1.189-1.329,2.049-1.055c0.857,0.275,1.329,1.192,1.055,2.049l-4.701,14.67
			C396.275,202.528,395.635,202.97,394.945,202.97z"/>
	</g>
	<g>
		<path style="fill:#5C69A5;" d="M465.487,271.117c-43.691,0-68.694-73.469-69.737-76.597c-0.284-0.854,0.177-1.776,1.03-2.061
			c0.852-0.286,1.776,0.176,2.061,1.03c0.248,0.744,25.297,74.368,66.645,74.368c11.624,0,21.049-3.938,28.014-11.707
			c18.464-20.596,14.221-61.557,14.175-61.968c-0.098-0.895,0.548-1.699,1.442-1.797c0.893-0.1,1.699,0.547,1.798,1.442
			c0.19,1.739,4.436,42.831-14.988,64.498C488.318,266.814,478.076,271.117,465.487,271.117z"/>
	</g>
</g>
<g>
	<g>
		<polygon style="fill:#F48462;" points="328.937,323.62 318.378,341.714 294.026,333.99 306.5,313.392 		"/>
	</g>
	<g>
		<polygon style="fill:#F48462;" points="375.091,342.938 374.424,323.076 350.789,321.895 350.789,344.12 		"/>
	</g>
	<g>
		<g>
			<path style="fill:#A37B90;" d="M338.926,199.333l1.092,56.099c0,0,0.591,27.826,1.612,50.763
				c0.34,7.986,1.757,21.414,2.205,26.839h35.259c0.143-24.048,1.732-94.738,0.693-106.252c-1.254-14.164-3.76-27.701-3.76-27.701
				l-32.553,0.215L338.926,199.333z"/>
		</g>
	</g>
	<g>
		<g>
			<path style="fill:#A37B90;" d="M327.877,333.841c4.172-7.001,13.896-28.428,17.75-37.326c1.723-3.977-2.153-97.217-2.153-97.217
				v-0.215l-11.245-2.936c0,0-31.993,97.708-39.674,125.749L327.877,333.841z"/>
		</g>
	</g>
	<g>
		<path style="fill:#FFFFFF;" d="M372.977,214.775c-6.409,0-10.326-7.967-10.368-8.055c-0.077-0.16-0.01-0.352,0.149-0.429
			c0.158-0.077,0.352-0.01,0.429,0.149c0.044,0.092,4.505,9.142,11.496,7.489c0.176-0.042,0.346,0.066,0.387,0.238
			c0.041,0.173-0.066,0.346-0.238,0.387C374.193,214.707,373.574,214.775,372.977,214.775z"/>
	</g>
	<g>
		<path style="fill:#FFFFFF;" d="M341.772,305.733c-0.184-0.004-0.324-0.15-0.321-0.328l1.693-84.32l-9.634-6.36
			c-0.148-0.098-0.189-0.297-0.091-0.444c0.098-0.15,0.298-0.188,0.444-0.091l9.781,6.457c0.092,0.061,0.147,0.164,0.145,0.274
			l-1.696,84.498C342.09,305.594,341.947,305.733,341.772,305.733z"/>
	</g>
	<g>
		<path style="fill:#5C69A5;" d="M350.432,142.799c0,0-9.438,0.396-13.18,7.386s-6.57,48.654-6.57,48.654s10.464,4.275,25.735,4.091
			c15.271-0.184,20.436-3.843,20.436-3.843l2.938-25.693c0,0-0.465-27.874-4.272-29.773
			C371.712,141.722,356.752,141.297,350.432,142.799z"/>
	</g>
	<g>
		<g>
			<path style="fill:#F48462;" d="M295.059,138.139c0,0-1.381-6.126-4.654-8.917c-3.273-2.791-7.145-4.59-6.468-2.106
				c0.677,2.484,2.944,6.542,2.944,6.542l-5.938-1.581c0,0-3.872-1.799-6.685-2.548c-2.813-0.749-3.698,1.319-3.698,1.319
				s-2.813-0.749-4.037,0.077c-1.224,0.826-0.356,2.592-0.356,2.592s-4.037,0.077-2.517,3.169c1.52,3.092,9.507,8.29,13.379,10.089
				c3.872,1.799,12.597,2.97,12.597,2.97S297.461,151.458,295.059,138.139z"/>
		</g>
	</g>
	<g>
		<path d="M273.344,139.47c-0.114,0-0.226-0.061-0.283-0.169c-0.084-0.156-0.024-0.351,0.132-0.435l10.301-5.523
			c0.154-0.084,0.351-0.025,0.435,0.131c0.084,0.156,0.024,0.351-0.132,0.435l-10.301,5.523
			C273.447,139.458,273.396,139.47,273.344,139.47z"/>
	</g>
	<g>
		<path d="M290.659,142.017c-0.04,0-0.08-0.007-0.119-0.023c-5.348-2.144-3.741-7.484-3.725-7.538
			c0.053-0.169,0.228-0.267,0.402-0.21c0.169,0.053,0.264,0.232,0.211,0.402c-0.061,0.196-1.439,4.83,3.35,6.75
			c0.165,0.066,0.245,0.253,0.179,0.417C290.907,141.941,290.786,142.017,290.659,142.017z"/>
	</g>
	<g>
		<path style="fill:#5C69A5;" d="M346.295,143.541c0,0-14.023,5.265-26.341,4.671c-12.318-0.593-22.745-11.306-22.745-11.306
			l-12.891,14.371c0,0,8.294,22.941,27.91,27.607c19.615,4.666,35.215-7.835,35.215-7.835L346.295,143.541z"/>
	</g>
	<g>
		<path style="fill:#F7B369;" d="M314.283,154.665c-0.208,0-0.424-0.03-0.648-0.091c-0.813-0.222-1.068-0.682-1.14-1.028
			c-0.384-1.861,3.738-5.209,4.21-5.585c0.095-0.077,0.227-0.092,0.338-0.039c0.11,0.053,0.182,0.163,0.184,0.286
			c0.003,0.19,0.044,4.658-1.739,6.041C315.13,154.526,314.726,154.665,314.283,154.665z M316.569,148.908
			c-1.619,1.384-3.649,3.511-3.444,4.508c0.02,0.093,0.077,0.374,0.68,0.538c0.504,0.139,0.927,0.069,1.29-0.213
			C316.25,152.846,316.511,150.181,316.569,148.908z"/>
	</g>
	<g>
		<path style="fill:#F7B369;" d="M332.441,178.649c-0.22-0.028-0.343-0.19-0.318-0.366l2.02-14.514
			c0.024-0.176,0.186-0.303,0.362-0.273c0.176,0.024,0.299,0.187,0.274,0.362l-2.02,14.514
			C332.737,178.533,332.6,178.649,332.441,178.649z"/>
	</g>
	<g>
		<g>
			<g>
				<g>
					<path style="fill:#68B6D8;" d="M345.627,359.849c0,1.978,0.765,4.24,2.33,4.81c1.566,0.569,14.237,1.756,25.323,0.917
						c10.614-0.807,12.816-1.487,13.599-2.326c0.382-0.427-0.364-2.405-1.22-4.319c-0.055-0.095-0.091-0.206-0.146-0.301
						c-0.437-0.965-0.892-1.898-1.22-2.563c-0.328-0.633-0.728-1.234-1.202-1.819c-1.147-1.376-3.423-4.224-4.005-5.695
						c-0.764-1.962-1.93-6.202-2.712-8.195c-0.783-1.962-2.694-2.373-2.694-2.373s-7.376-5.63-23.394-0.158
						c-1.895,0.647-2.33,10.457-2.33,11.865v1.408c0,1.313-1.038,3.908-1.711,6.059c-0.182,0.538-0.328,1.044-0.437,1.503
						C345.7,359.121,345.627,359.517,345.627,359.849z"/>
				</g>
			</g>
		</g>
	</g>
	<g>
		<g>
			<path style="fill:#68B6D8;" d="M258.569,362.312c-0.559-0.081-0.931-0.654-0.828-1.257c0.487-2.854,2.202-10.825,6.593-14.183
				c5.396-4.126,16.652-5.714,20.76-8.461c4.108-2.747,8.73-9.417,11.162-8.131c2.431,1.286,6.991,7.147,13.641,6.361
				c6.65-0.786,9.729-2.431,11.506-0.753c1.777,1.678,2.637,25.002,1.861,26.385c-0.776,1.383-10.127,0.035-10.943,0.254
				c-0.817,0.219-3.078-5.349-4.617-4.527c-1.539,0.822-3.428,3.413-5.695,4.594C299.892,363.696,265.262,363.288,258.569,362.312z"
				/>
		</g>
	</g>
	<g>
		<path style="fill:#5C69A5;" d="M287.404,341.694c-0.115,0-0.227-0.063-0.284-0.171c-0.22-0.416-1.027-1.963-1.934-3.925
			c-1.583-2.773-3.936-5.902-6.174-5.261c-0.482,0.139-0.754,0.374-0.831,0.721c-0.421,1.901,4.275,6.472,6.12,8.072
			c0.134,0.116,0.147,0.318,0.031,0.453c-0.117,0.133-0.317,0.147-0.453,0.031c-0.708-0.614-6.904-6.079-6.325-8.695
			c0.09-0.405,0.385-0.942,1.28-1.199c1.762-0.502,3.483,0.814,4.938,2.617c-1.199-2.998-2.115-6.081-1.509-7.43
			c0.176-0.391,0.478-0.648,0.872-0.745c0.58-0.137,1.122-0.026,1.617,0.341c2.47,1.828,2.952,9.755,2.971,10.091
			c0.011,0.177-0.125,0.329-0.302,0.339c-0.199,0.038-0.328-0.125-0.339-0.302c-0.005-0.079-0.483-7.962-2.712-9.612
			c-0.34-0.251-0.693-0.325-1.083-0.231c-0.203,0.049-0.343,0.171-0.439,0.384c-0.692,1.539,1.192,6.377,2.943,10.189
			c1.119,1.964,1.837,3.715,1.908,3.892c0.065,0.158-0.008,0.339-0.162,0.411C287.496,341.685,287.45,341.694,287.404,341.694z"/>
	</g>
	<g>
		<path style="fill:#5C69A5;" d="M366.305,350.972c-0.128,0-0.249-0.077-0.299-0.204c-0.065-0.165,0.017-0.352,0.182-0.416
			c1.446-0.568,5.291-2.352,5.706-3.764c0.064-0.223,0.032-0.413-0.103-0.599c-0.154-0.215-0.376-0.339-0.676-0.379
			c-1.62-0.233-4.772,1.994-5.858,2.865c-0.129,0.102-0.313,0.095-0.428-0.022c-0.116-0.115-0.127-0.3-0.024-0.428
			c1.416-1.781,4.96-6.74,4.357-8.279c-0.053-0.135-0.168-0.321-0.56-0.382c-2.479-0.369-4.726,7.311-5.391,10.305
			c-0.038,0.173-0.208,0.281-0.383,0.244c-0.174-0.038-0.282-0.21-0.244-0.383c0.258-1.163,2.637-11.331,6.115-10.801
			c0.663,0.103,0.943,0.481,1.06,0.782c0.605,1.544-1.656,5.09-3.191,7.234c1.389-0.906,3.322-1.957,4.632-1.772
			c0.477,0.064,0.852,0.279,1.111,0.639c0.249,0.346,0.317,0.746,0.197,1.156c-0.578,1.968-5.525,3.96-6.088,4.181
			C366.384,350.965,366.344,350.972,366.305,350.972z"/>
	</g>
	<g>
		<path d="M351.015,122.131c0,0-5.795-8.289-2.915-11.216c2.88-2.927,6.777,0.474,6.777,0.474s0.485-3.668,4.563-3
			c4.078,0.667,6.245,5.214,6.245,5.214s3.864-3.36,6.083,0.426c2.22,3.786,0.096,9.561,0.096,9.561s2.882-0.223,1.887,3.073
			c-0.995,3.295-5.723,6.434-5.723,6.434L351.015,122.131z"/>
	</g>
	<g>
		<g>
			<path style="fill:#F48462;" d="M364.035,135.455l-0.5,8.856c0,0-2.186,1.758-7.391,1.887c-3.877,0.096-4.444-1.812-4.444-1.812
				l0.497-2.798l0.777-4.344l9.471-1.53L364.035,135.455z"/>
		</g>
	</g>
	<g>
		<g>
			<path d="M362.446,135.713c-0.036,0.241-0.144,0.521-0.306,0.84c-2.231,4.312-7.703,4.96-9.943,5.034l0.777-4.344L362.446,135.713
				z"/>
		</g>
	</g>
	<g>
		<g>
			<path style="fill:#F48462;" d="M352.139,116.946c0,0-5.274,10.841-3.79,17.114c1.484,6.273,7.174,5.527,10.604,4.467
				c3.43-1.061,5.083-3.07,5.083-3.07s3.114,1.2,5.346-1.65c2.232-2.85,1.07-6.276-0.702-7.122
				c-1.772-0.847-3.969,0.368-3.969,0.368l1.812-3.139C366.523,123.913,360.119,107.321,352.139,116.946z"/>
		</g>
	</g>
	<g>
		<path d="M364.789,131.82c-0.105,0-0.21-0.053-0.271-0.149c-0.096-0.149-0.052-0.348,0.098-0.443l4.152-2.644
			c0.148-0.095,0.348-0.052,0.443,0.099c0.096,0.149,0.052,0.348-0.098,0.443l-4.152,2.644
			C364.908,131.804,364.849,131.82,364.789,131.82z"/>
	</g>
	<g>
		<path d="M368.429,131.976c-0.032,0-0.065-0.005-0.098-0.015l-2.59-0.824c-0.169-0.054-0.262-0.234-0.208-0.403
			c0.054-0.169,0.235-0.263,0.403-0.209l2.59,0.824c0.169,0.054,0.262,0.234,0.208,0.403
			C368.691,131.889,368.564,131.976,368.429,131.976z"/>
	</g>
	<g>
		<path d="M359.052,122.456c-0.141,0-0.27-0.093-0.31-0.235c-0.506-1.81-2.098-1.663-2.17-1.658
			c-0.173,0.015-0.334-0.11-0.353-0.285c-0.02-0.176,0.107-0.333,0.282-0.354c0.776-0.08,2.335,0.251,2.859,2.124
			c0.048,0.171-0.052,0.348-0.223,0.396C359.109,122.452,359.08,122.456,359.052,122.456z"/>
	</g>
	<g>
		<path d="M350.747,121.103c-0.099,0-0.195-0.045-0.259-0.131c-0.105-0.143-0.074-0.344,0.068-0.449
			c0.36-0.264,1.454-1.063,1.833-0.569c0.108,0.141,0.081,0.343-0.06,0.451c-0.098,0.075-0.226,0.085-0.331,0.036
			c-0.08,0.012-0.369,0.091-1.061,0.6C350.88,121.082,350.813,121.103,350.747,121.103z"/>
	</g>
	<g>
		<path d="M351.763,129.612c-0.104,0-0.207-0.051-0.269-0.145c-1.264-1.922,1.654-4.658,1.779-4.773
			c0.129-0.121,0.331-0.113,0.453,0.018c0.121,0.13,0.113,0.333-0.018,0.454c-0.738,0.685-2.48,2.73-1.678,3.95
			c0.098,0.148,0.056,0.347-0.092,0.445C351.885,129.595,351.823,129.612,351.763,129.612z"/>
	</g>
	<g>
		<path d="M350.547,125.36c-0.034,0-0.068-0.005-0.102-0.017c-0.169-0.056-0.259-0.238-0.203-0.407l0.669-2
			c0.056-0.168,0.242-0.259,0.406-0.203c0.169,0.056,0.259,0.238,0.203,0.407l-0.669,2
			C350.807,125.275,350.682,125.36,350.547,125.36z"/>
	</g>
	<g>
		<path d="M356.145,125.786c-0.034,0-0.068-0.005-0.102-0.017c-0.169-0.056-0.259-0.238-0.203-0.407l0.669-2
			c0.056-0.169,0.241-0.26,0.406-0.203c0.169,0.056,0.259,0.238,0.203,0.407l-0.669,2
			C356.404,125.701,356.279,125.786,356.145,125.786z"/>
	</g>
	<g>
		<path d="M351.065,119.395c0,0,1.062-1.726,3.272-1.617c2.21,0.109,3.412,1.738,3.412,1.738s-1.179,3.665,1.714,5.811
			c2.892,2.146,5.248,1.724,5.248,1.724l2.223-0.654l1.778-3.094l-5.92-7.149l-7.916-4.767l-4.37,3.54L351.065,119.395z"/>
	</g>
	<g>
		<path d="M354.089,133.279c-0.229,0-0.373-0.02-0.379-0.021c-0.175-0.027-0.295-0.19-0.269-0.365c0.026-0.174,0.181-0.3,0.365-0.27
			c0.076,0.01,1.835,0.25,2.679-1.314c0.084-0.156,0.278-0.213,0.435-0.13c0.156,0.084,0.215,0.279,0.13,0.435
			C356.253,133.092,354.782,133.279,354.089,133.279z"/>
	</g>
	<g>
		<path style="fill:#F7B369;" d="M363.801,150.836c-2.537,0-6.636-3.347-7.682-4.237c-0.921,0.594-4.627,2.809-7.388,1.919
			c-0.679-0.219-1.04-0.564-1.072-1.026c-0.098-1.374,3.232-3.069,3.901-3.395c0.115-0.057,0.254-0.038,0.351,0.045
			c4.226,3.639,11.402-0.079,11.475-0.116c0.135-0.071,0.305-0.037,0.4,0.084c0.094,0.117,2.283,2.898,2.02,4.939
			c-0.077,0.601-0.354,1.084-0.824,1.436C364.655,150.73,364.253,150.836,363.801,150.836z M356.881,146.399
			c2.051,1.687,6.247,4.667,7.716,3.572c0.33-0.247,0.517-0.575,0.572-1.003c0.191-1.484-1.244-3.588-1.728-4.251
			C362.606,145.123,359.847,146.348,356.881,146.399z M351.656,144.767c-1.446,0.732-3.403,2.02-3.356,2.68
			c0.016,0.229,0.4,0.387,0.629,0.46c2.172,0.701,5.16-0.842,6.427-1.593C354.06,146.137,352.78,145.676,351.656,144.767z"/>
	</g>
	<g>
		<g>
			<path d="M321.717,189.581l8.638-2.7c1.212-0.379,1.888-1.669,1.509-2.881l-6.595-21.105c-0.379-1.212-1.669-1.888-2.881-1.509
				l-8.639,2.699c-1.212,0.379-1.888,1.669-1.509,2.881l6.595,21.105C319.215,189.284,320.505,189.96,321.717,189.581z"/>
		</g>
		<g>
			<path style="fill:#92B4EA;" d="M319.525,190.266l8.638-2.7c1.212-0.379,1.888-1.669,1.509-2.881l-6.595-21.105
				c-0.379-1.212-1.669-1.888-2.881-1.509l-8.638,2.699c-1.212,0.379-1.888,1.669-1.509,2.881l6.595,21.105
				C317.022,189.969,318.312,190.645,319.525,190.266z"/>
		</g>
	</g>
	<g>
		<path style="fill:#F48462;" d="M343.546,174.738c0,0-8.022-2.729-9.553-2.634c-1.531,0.095-5.401,1.316-5.401,1.316l0.543,2.191
			c0,0-13.483,1.477-13.477,4.137c0.004,1.811,5.851,1.501,5.851,1.501s-6.044,0.815-5.853,2.874
			c0.191,2.059,7.654,1.848,7.654,1.848s-6.176,1.241-3.86,3.042c2.316,1.801,22.078,3.86,25.065-1.029
			C347.502,183.094,343.546,174.738,343.546,174.738z"/>
	</g>
	<g>
		<path style="fill:#5C69A5;" d="M375.519,143.621c0,0,25.546,15.891,20.461,40.21c-5.13,24.534-54.843,10.145-54.843,10.145
			l1.64-22.62l29.178-1.599L375.519,143.621z"/>
	</g>
	<g>
		<path style="fill:#F7B369;" d="M376.673,170.583c-3.061,0-6.585-0.37-6.809-0.394c-0.142-0.015-0.257-0.122-0.282-0.263
			c-0.024-0.141,0.046-0.281,0.174-0.344c4.339-2.15,9.727-1.659,11.098-0.686c0.336,0.239,0.382,0.485,0.361,0.65
			c-0.033,0.262-0.247,0.471-0.638,0.622C379.772,170.48,378.287,170.583,376.673,170.583z M371.164,169.666
			c2.379,0.205,7.516,0.55,9.181-0.095c0.107-0.042,0.17-0.078,0.204-0.102C380.053,168.93,375.575,167.974,371.164,169.666z"/>
	</g>
	<g>
		<path d="M328.769,175.613c-0.152,0-0.287-0.108-0.315-0.263c-0.033-0.174,0.082-0.342,0.257-0.374l2.629-0.49
			c0.174-0.031,0.342,0.083,0.374,0.257c0.033,0.174-0.082,0.342-0.257,0.375l-2.629,0.49
			C328.808,175.611,328.788,175.613,328.769,175.613z"/>
	</g>
	<g>
		<path d="M320.513,181.537c-0.16,0-0.299-0.12-0.318-0.283c-0.021-0.176,0.104-0.336,0.279-0.357l9.039-1.095
			c0.19-0.022,0.337,0.104,0.357,0.28c0.022,0.176-0.103,0.336-0.279,0.357l-9.039,1.095
			C320.538,181.536,320.525,181.537,320.513,181.537z"/>
	</g>
	<g>
		<path d="M322.199,186.525c-0.16,0-0.298-0.119-0.318-0.281c-0.022-0.176,0.103-0.337,0.278-0.359l9.198-1.164
			c0.186-0.021,0.336,0.104,0.358,0.278c0.022,0.176-0.103,0.337-0.278,0.359l-9.198,1.164
			C322.226,186.524,322.212,186.525,322.199,186.525z"/>
	</g>
	<g>
		<path style="fill:#F7B369;" d="M352.135,172.423c-0.149,0-0.283-0.105-0.315-0.257c-0.036-0.174,0.076-0.343,0.25-0.378
			c0.084-0.018,8.506-1.718,17.811-2.238c0.184,0.007,0.329,0.126,0.338,0.303c0.01,0.177-0.125,0.329-0.303,0.339
			c-9.256,0.517-17.634,2.209-17.717,2.226C352.178,172.421,352.155,172.423,352.135,172.423z"/>
	</g>
</g>
<g>
	<g>
		<path style="fill:#50608E;" d="M98.978,319.381l-3.533,10.177c0,0,4.876,2.345,5.383,4.909c0.518,2.618-2.286,4.347-2.286,4.347
			l8.743,10.74l-27.157-3.368l2.493-26.805H98.978z"/>
	</g>
	<g>
		<path d="M73.835,121.038c0,0-9.421,1.182-12.846,10.227c-3.426,9.045-1.4,20.749-1.4,20.749l17.387-3.997l-0.755-16.064
			L73.835,121.038z"/>
	</g>
	<g>
		<path d="M81.869,138.121c0,0-5.369,0.239-8.462-7.255c-3.093-7.494,0.776-13.358,0.776-13.358l6.741,3.53l3.663,13.387
			L81.869,138.121z"/>
	</g>
	<g>
		<polygon style="fill:#F48462;" points="63.871,329.537 63.871,346.186 87.327,344.395 87.327,328.485 		"/>
	</g>
	<g>
		<path style="fill:#FFB164;" d="M103.619,193.978c0,0,24.816,49.272,25.006,65.504c0.19,16.232-33.18,70.077-33.18,70.077
			s-9.069,3.73-22.391,3.3c-13.322-0.43-15.415-1.957-15.415-1.957s2.284-115.494,7.612-126.302
			C70.58,193.791,103.619,193.978,103.619,193.978z"/>
	</g>
	<g>
		<path style="fill:#68B6D8;" d="M84.473,141.423c0,0-11.799-0.396-17.889,5.123c-6.09,5.519-2.093,53.668-2.093,53.668
			s15.888,1.332,27.26,0c11.373-1.332,16.511-3.14,16.511-3.14s1.332-44.26-1.713-49.583
			C103.504,142.169,84.473,141.423,84.473,141.423z"/>
	</g>
	<g>
		<g>
			<path style="fill:#F48462;" d="M82.06,134.882l-0.748,8.824c0,0,1.376,2.671,6.503,3.529c3.819,0.639,5.244-0.116,5.244-0.116
				l-0.157-4.515l-0.159-4.403l-9.148-2.84L82.06,134.882z"/>
		</g>
	</g>
	<g>
		<g>
			<path d="M83.594,135.36c0.002,0.243,0.069,0.535,0.184,0.873c1.601,4.575,6.919,5.983,9.123,6.37l-0.159-4.403L83.594,135.36z"/>
		</g>
	</g>
	<g>
		<g>
			<path style="fill:#F48462;" d="M96.414,118.254c0,0,3.694,11.456,1.347,17.448c-2.347,5.992-7.867,4.458-11.108,2.929
				c-3.241-1.529-4.595-3.747-4.595-3.747s-3.246,0.749-5.053-2.381c-1.807-3.13-0.177-6.353,1.692-6.942
				c1.87-0.588,3.872,0.92,3.872,0.92l-1.351-3.357C81.219,123.124,89.875,107.621,96.414,118.254z"/>
		</g>
	</g>
	<g>
		<path d="M81.869,131.188c-0.074,0-0.148-0.025-0.209-0.077l-3.733-3.196c-0.135-0.116-0.15-0.318-0.035-0.453
			c0.115-0.135,0.319-0.149,0.453-0.035l3.733,3.196c0.135,0.116,0.15,0.318,0.035,0.453
			C82.05,131.149,81.96,131.188,81.869,131.188z"/>
	</g>
	<g>
		<path d="M78.249,130.831c-0.154,0-0.289-0.111-0.316-0.268c-0.029-0.175,0.088-0.341,0.263-0.371l2.675-0.452
			c0.17-0.028,0.34,0.088,0.371,0.263c0.029,0.175-0.088,0.341-0.263,0.371l-2.675,0.452
			C78.286,130.83,78.268,130.831,78.249,130.831z"/>
	</g>
	<g>
		<path d="M88.659,122.252c-0.078,0-0.155-0.028-0.217-0.085c-0.131-0.12-0.14-0.323-0.02-0.454c1.313-1.435,2.866-1.02,3.505-0.601
			c0.147,0.097,0.189,0.295,0.092,0.443c-0.095,0.149-0.294,0.189-0.443,0.095c-0.058-0.038-1.416-0.885-2.68,0.497
			C88.832,122.216,88.746,122.252,88.659,122.252z"/>
	</g>
	<g>
		<path d="M97.253,122.562c-0.081,0-0.162-0.031-0.225-0.092c-0.878-0.86-1.46-0.69-1.486-0.682
			c-0.167,0.049-0.348-0.037-0.404-0.201c-0.057-0.165,0.024-0.343,0.187-0.404c0.096-0.037,0.979-0.32,2.152,0.828
			c0.127,0.124,0.129,0.327,0.005,0.454C97.419,122.53,97.336,122.562,97.253,122.562z"/>
	</g>
	<g>
		<path style="fill:#F4E6E6;" d="M81.52,141.252c0,0,8.23,121.044,7.553,122.421c-0.677,1.377-16.245,3.787-21.739,2.754
			c-5.495-1.033-8.527-2.754-9.41-3.787c-0.884-1.033,0.573-80.185,0.573-80.185l-0.858-32.511
			C57.639,149.944,69.522,141.209,81.52,141.252z"/>
	</g>
	<g>
		<path style="fill:#92B4EA;" d="M69.265,171.111h10.433c0.892,0,1.615-0.723,1.615-1.615v-1.799c0-0.892-0.723-1.615-1.615-1.615
			H69.265c-0.892,0-1.615,0.723-1.615,1.615v1.799C67.65,170.388,68.373,171.111,69.265,171.111z"/>
	</g>
	<g>
		<path d="M95.238,131.586c-0.025,0-0.05-0.003-0.075-0.009c-0.172-0.041-0.279-0.214-0.238-0.387
			c0.791-3.338-1.088-4.919-1.168-4.984c-0.137-0.112-0.158-0.314-0.047-0.451c0.112-0.137,0.313-0.159,0.45-0.048
			c0.094,0.075,2.278,1.884,1.39,5.632C95.515,131.486,95.383,131.586,95.238,131.586z"/>
	</g>
	<g>
		<path d="M96.854,126.799c-0.152,0-0.287-0.108-0.315-0.263l-0.381-2.071c-0.017-0.092,0.007-0.186,0.065-0.259l0.676-0.845
			c0.112-0.138,0.314-0.16,0.452-0.05c0.139,0.111,0.161,0.313,0.05,0.452l-0.585,0.73l0.354,1.927
			c0.032,0.174-0.083,0.342-0.258,0.374C96.893,126.797,96.873,126.799,96.854,126.799z"/>
	</g>
	<g>
		<path d="M91.652,134.34c-0.315,0-0.664-0.061-0.996-0.246c-0.635-0.354-1.028-1.06-1.17-2.097
			c-0.017-0.126,0.042-0.249,0.149-0.316c0.108-0.066,0.245-0.064,0.35,0.007l2.767,1.884c0.097,0.066,0.15,0.179,0.139,0.295
			c-0.011,0.116-0.083,0.217-0.19,0.265C92.671,134.145,92.219,134.34,91.652,134.34z M90.308,132.686
			c0.151,0.402,0.372,0.686,0.662,0.848c0.265,0.148,0.56,0.18,0.816,0.158L90.308,132.686z"/>
	</g>
	<g>
		<path style="fill:#7772D3;" d="M103.764,145.152c0,0,5.718,3.247,11.464,5.149c5.364,1.775,9.404,1.922,9.404,1.922
			s0.016,6.884-0.209,14.062c-0.232,7.401,0.753,12.615,0.753,12.615s-17.862,3.839-22.001-1.86
			C99.035,171.342,103.764,145.152,103.764,145.152z"/>
	</g>
	<g>
		<path style="fill:#F48462;" d="M138.343,135.325c0,0,3.26-8.055,8.76-9.619c2.63-0.748-1.519,6.828-1.519,6.828l5.682-2.172
			c0,0,8.404-2.343,10.076-1.612c1.671,0.731-1.081,3.457-1.081,3.457s5.984-1.796,5.145,1.122c-0.84,2.918-4.934,4.595-4.934,4.595
			s5.85-2.073,4.529,1.345c-0.714,1.848-13.578,9.637-22.247,9.359c-8.668-0.278-6.321-6.067-6.321-6.067L138.343,135.325z"/>
	</g>
	<g>
		<path d="M157.248,139.775c-0.074,0-0.148-0.025-0.208-0.077l-7.442-6.358c-0.135-0.115-0.151-0.318-0.036-0.453
			c0.116-0.135,0.318-0.151,0.453-0.036l7.442,6.358c0.135,0.115,0.151,0.318,0.036,0.453
			C157.428,139.737,157.338,139.775,157.248,139.775z"/>
	</g>
	<g>
		<path d="M141.604,143.4c-0.142,0-0.271-0.095-0.31-0.238c-0.046-0.171,0.055-0.347,0.226-0.393
			c0.018-0.005,1.793-0.506,2.708-2.299c0.81-1.586,0.732-3.686-0.232-6.242c-0.063-0.166,0.021-0.351,0.187-0.413
			c0.166-0.063,0.351,0.021,0.414,0.187c1.033,2.738,1.1,5.016,0.198,6.771c-1.051,2.046-3.025,2.594-3.108,2.616
			C141.659,143.396,141.631,143.4,141.604,143.4z"/>
	</g>
	<g>
		<path style="fill:#A37B90;" d="M95.446,329.561c-0.196-0.011-0.331-0.163-0.321-0.34c2.192-37.622,1.417-98.701,1.408-99.315
			c-0.001-0.114,0.059-0.222,0.158-0.28l11.701-6.93c0.153-0.09,0.35-0.039,0.44,0.112c0.09,0.153,0.04,0.35-0.113,0.44
			l-11.541,6.835c0.046,3.766,0.722,62.562-1.411,99.174C95.756,329.43,95.614,329.561,95.446,329.561z"/>
	</g>
	<g>
		<path style="fill:#A37B90;" d="M96.962,269.809c-0.101,0-0.199-0.048-0.261-0.134c-0.082-0.113-0.081-0.268,0.004-0.38
			c0.253-0.338,6.24-8.272,10.164-8.639c0.747-0.069,1.391,0.132,1.903,0.602c0.607,0.556,0.636,1.137,0.552,1.525
			c-0.658,3.077-11.075,6.614-12.261,7.008C97.03,269.803,96.996,269.809,96.962,269.809z M107.154,261.285
			c-0.073,0-0.148,0.003-0.226,0.011c-2.922,0.272-7.367,5.453-9.04,7.532c3.601-1.286,10.363-4.097,10.808-6.179
			c0.072-0.336-0.042-0.628-0.358-0.918C108.011,261.433,107.622,261.285,107.154,261.285z"/>
	</g>
	<g>
		<g>
			<path style="fill:#5C69A5;" d="M65.935,363.175c-1.632-0.062-2.93-1.475-2.953-3.22c-0.089-6.891-1.132-22.329,0.125-22.344
				c1.604-0.02,17.761,4.17,17.761,4.17s0.338-9.554,7.004-7.924c5.115,1.251,11.1,7.249,13.607,9.973
				c0.796,0.865,1.8,1.461,2.908,1.723c4.765,1.127,17.879,4.859,18.155,11.867c0.337,8.566-3.112,7.63-4.716,7.651
				C116.45,365.086,77.062,363.597,65.935,363.175z"/>
		</g>
	</g>
	<g>
		<path style="fill:#FFFFFF;" d="M88.681,344.714c-0.037,0-0.074-0.007-0.11-0.02l-7.677-2.813
			c-0.166-0.061-0.252-0.246-0.191-0.412c0.062-0.166,0.248-0.248,0.412-0.191l7.677,2.813c0.167,0.062,0.252,0.246,0.191,0.412
			C88.935,344.633,88.812,344.714,88.681,344.714z"/>
	</g>
	<g>
		<path d="M91.26,126.847c-0.152,0-0.287-0.108-0.316-0.263l-0.381-2.07c-0.018-0.1,0.011-0.202,0.08-0.276l0.871-0.942
			c0.121-0.131,0.323-0.138,0.454-0.018c0.13,0.121,0.138,0.324,0.017,0.454l-0.762,0.824l0.352,1.912
			c0.032,0.174-0.084,0.342-0.258,0.374C91.299,126.845,91.279,126.847,91.26,126.847z"/>
	</g>
	<g>
		<path d="M82.569,126.481l1.025,1.189l-0.513-1.714c0,0,2.415-0.015,5.577-2.014c3.161-1.998,3.912-6.851,3.912-6.851
			s1.37,0.642,2.868,1.808c1.497,1.166,1.815,2.415,1.815,2.415s3.962-10.979-4.351-12.406c-8.313-1.427-14.213,5.62-14.213,5.62
			s-4.758,0.661-5.234,5.323c-0.476,4.663,2.782,8.279,2.782,8.279S78.362,124.262,82.569,126.481z"/>
	</g>
	<g>
		<path style="fill:#F4E6E6;" d="M132.838,138.982l20.493,11.062c0,0-7.38,21.312-20.974,26.71
			c-13.179,5.234-20.098,4.071-20.098,4.071l12.175,62.16c0,0-18.23-42.864-18.628-45.21c-0.398-2.346-12.918-55.543-12.918-55.543
			s2.952-0.424,9.447,2.074c6.495,2.498,13.484,4.169,19.479,4.169C127.809,148.475,132.838,138.982,132.838,138.982z"/>
	</g>
	<g>
		<path style="fill:#F48462;" d="M93.059,147.118l0.498,3.968c0,0-10.957-4.588-11.687-6.648
			c-0.731-2.059,10.701,1.152,10.701,1.152L93.059,147.118z"/>
	</g>
	<g>
		<path style="fill:#FFFFFF;" d="M93.557,151.407c-0.041,0-0.083-0.008-0.122-0.024c-0.41-0.168-10.067-4.155-11.832-6.765
			c-0.099-0.147-0.06-0.346,0.087-0.446c0.147-0.099,0.347-0.06,0.446,0.086c1.445,2.137,9.081,5.485,11.07,6.331l-0.394-6.621
			c-0.01-0.177,0.124-0.329,0.302-0.34c0.173,0.004,0.33,0.124,0.34,0.302l0.424,7.137c0.006,0.11-0.044,0.216-0.134,0.28
			C93.688,151.387,93.623,151.407,93.557,151.407z"/>
	</g>
	<g>
		<path style="fill:#5C69A5;" d="M69.592,260.008c-0.641,0-1.199-0.017-1.634-0.052c-3.522-0.289-4.951-1.278-5.011-1.32
			c-0.084-0.06-0.135-0.157-0.135-0.262v-25.287c0-0.178,0.144-0.321,0.321-0.321h17.662c0.172,0,0.313,0.136,0.321,0.308
			c0.316,7.431,0.993,24.79,0.451,25.496C80.974,259.342,73.634,260.008,69.592,260.008z M63.455,258.193
			c0.418,0.233,1.822,0.898,4.556,1.122c3.555,0.293,12.383-0.578,13.059-1.151c0.294-0.854-0.177-15.161-0.582-24.756H63.455
			V258.193z"/>
	</g>
	<g>
		<path style="fill:#5C69A5;" d="M121.688,157.982c-0.405,0-0.747-0.159-0.996-0.466c-1.423-1.753,0.583-8.335,0.815-9.08
			c0.042-0.133,0.165-0.224,0.304-0.225c0.178-0.012,0.263,0.088,0.308,0.22c0.092,0.274,2.228,6.75,0.867,8.844
			c-0.271,0.417-0.655,0.653-1.141,0.7C121.791,157.98,121.739,157.982,121.688,157.982z M121.822,149.65
			c-0.646,2.351-1.507,6.384-0.631,7.461c0.145,0.179,0.336,0.253,0.592,0.224c0.29-0.028,0.501-0.158,0.664-0.41
			C123.287,155.633,122.458,151.859,121.822,149.65z"/>
	</g>
	<g>
		<path style="fill:#40507F;" d="M78.145,152.518c-0.194,0-0.37-0.133-0.416-0.33c-0.972-4.11-0.785-7.254,0.558-9.346
			c1.118-1.742,2.634-2.063,2.698-2.076c0.233-0.047,0.457,0.104,0.504,0.336c0.046,0.232-0.104,0.458-0.336,0.504
			c-0.048,0.01-1.248,0.28-2.162,1.725c-1.18,1.863-1.328,4.858-0.429,8.66c0.055,0.23-0.088,0.461-0.318,0.515
			C78.21,152.514,78.177,152.518,78.145,152.518z"/>
	</g>
	<g>
		<path style="fill:#40507F;" d="M98.978,162.339c-0.241-0.003-0.431-0.196-0.428-0.433c0.001-0.159,0.091-15.925-5.45-19.956
			c-0.191-0.139-0.233-0.407-0.094-0.598c0.139-0.19,0.407-0.232,0.598-0.094c5.897,4.29,5.809,19.991,5.803,20.658
			C99.403,162.15,99.212,162.339,98.978,162.339z"/>
	</g>
	<g>
		<path style="fill:#40507F;" d="M78.971,166.626c-0.165,0-0.322-0.096-0.392-0.256c-0.182-0.415-4.41-10.197-0.968-13.922
			c0.566-0.613,1.271-0.884,2.088-0.815c3.776,0.331,8.992,8.383,9.212,8.726c0.128,0.199,0.07,0.464-0.129,0.592
			c-0.2,0.128-0.464,0.07-0.592-0.129c-1.437-2.236-5.778-8.092-8.566-8.336c-0.55-0.046-1.002,0.13-1.385,0.544
			c-3.063,3.315,1.081,12.901,1.123,12.997c0.095,0.217-0.004,0.469-0.22,0.564C79.086,166.615,79.028,166.626,78.971,166.626z"/>
	</g>
	<g>
		<circle style="fill:#40507F;" cx="98.978" cy="162.745" r="2.556"/>
	</g>
	<g>
		<circle style="fill:#A37B90;" cx="98.978" cy="162.745" r="0.995"/>
	</g>
	<g>
		<path style="fill:#40507F;" d="M89.944,161.45h-3.306c-0.236,0-0.428-0.192-0.428-0.428c0-0.236,0.192-0.428,0.428-0.428h3.306
			c0.236,0,0.428,0.192,0.428,0.428C90.373,161.258,90.181,161.45,89.944,161.45z"/>
	</g>
	<g>
		<path style="fill:#40507F;" d="M78.483,168.035c-0.076,0-0.154-0.021-0.224-0.064c-0.201-0.124-0.265-0.387-0.141-0.589
			l1.729-2.818c0.124-0.201,0.387-0.264,0.589-0.141c0.201,0.124,0.265,0.387,0.141,0.589l-1.729,2.818
			C78.768,167.962,78.627,168.035,78.483,168.035z"/>
	</g>
	<g>
		<path style="fill:#92B4EA;" d="M217.277,191.576h-67.18c-2.02,0-3.657-1.637-3.657-3.657V92.106c0-2.02,1.637-3.657,3.657-3.657
			h67.18c2.02,0,3.657,1.637,3.657,3.657v95.813C220.934,189.939,219.296,191.576,217.277,191.576z"/>
	</g>
	<g>
		<path style="fill:#F48462;" d="M138.537,134.882c0,0,4.363-9.307,10.252-9.228c5.889,0.079-3.687,7.332-3.687,7.332
			L138.537,134.882z"/>
	</g>
	<g>
		<g>
			<path style="fill:#5C69A5;" d="M207.61,104.747h-26.598c-0.4,0-0.725-0.325-0.725-0.725c0-0.4,0.325-0.725,0.725-0.725h26.598
				c0.4,0,0.725,0.325,0.725,0.725C208.335,104.422,208.011,104.747,207.61,104.747z"/>
		</g>
		<g>
			<path style="fill:#5C69A5;" d="M207.61,119.157h-47.848c-0.4,0-0.725-0.325-0.725-0.725c0-0.4,0.325-0.725,0.725-0.725h47.848
				c0.4,0,0.725,0.325,0.725,0.725C208.335,118.832,208.011,119.157,207.61,119.157z"/>
		</g>
		<g>
			<path style="fill:#5C69A5;" d="M207.61,133.566h-47.848c-0.4,0-0.725-0.325-0.725-0.725c0-0.4,0.325-0.725,0.725-0.725h47.848
				c0.4,0,0.725,0.325,0.725,0.725C208.335,133.242,208.011,133.566,207.61,133.566z"/>
		</g>
		<g>
			<path style="fill:#5C69A5;" d="M207.61,148.243h-47.848c-0.4,0-0.725-0.325-0.725-0.725c0-0.4,0.325-0.725,0.725-0.725h47.848
				c0.4,0,0.725,0.325,0.725,0.725C208.335,147.919,208.011,148.243,207.61,148.243z"/>
		</g>
		<g>
			<path style="fill:#5C69A5;" d="M207.61,162.653h-47.848c-0.4,0-0.725-0.325-0.725-0.725c0-0.4,0.325-0.725,0.725-0.725h47.848
				c0.4,0,0.725,0.325,0.725,0.725C208.335,162.328,208.011,162.653,207.61,162.653z"/>
		</g>
		<g>
			<path style="fill:#5C69A5;" d="M207.61,177.062h-11.729c-0.4,0-0.725-0.325-0.725-0.725s0.325-0.725,0.725-0.725h11.729
				c0.4,0,0.725,0.325,0.725,0.725S208.011,177.062,207.61,177.062z"/>
		</g>
	</g>
	<g>
		<g>
			<g>
				<path style="fill:#40507F;" d="M163.625,104.127l-2.39-3.428c-0.151,0.018-0.301,0.018-0.452,0.018h-2.641v3.41h-2.174V92.424
					h4.815c3.077,0,4.982,1.572,4.982,4.163c0,1.772-0.903,3.076-2.491,3.695l2.693,3.846H163.625z M160.683,94.263h-2.541v4.665
					h2.541c1.906,0,2.891-0.87,2.891-2.341C163.574,95.115,162.589,94.263,160.683,94.263z"/>
			</g>
		</g>
		<g>
			<g>
				<path style="fill:#40507F;" d="M170.259,113.218l-3.176-4.447l-3.143,4.447h-2.474l4.347-5.968l-4.718-6.746l3.062,1.011
					l2.992,4.163l2.959-4.163h2.358l-4.096,5.651l4.397,6.052H170.259z"/>
			</g>
		</g>
	</g>
	<g>
		<path style="fill:#F48462;" d="M90.204,181.91c0,0,8.246-2.994,14.65-0.919c2.295,0.744,5.901,0.969,6.05,1.895
			c0.283,1.762-2.999,1.574-4.993,2.883c-1.993,1.309,4.808,4.368,7.871,4.446c3.064,0.078,7.819-2.142,8.089-0.165
			c0.183,1.34-1.799,3.684-4.351,4.496c-2.552,0.812-9.186,0.044-9.186,0.044L90.204,181.91z"/>
	</g>
	<g>
		<path style="fill:#F48462;" d="M91.638,196.332c0,0,14.68,5.883,19.659,5.341c4.978-0.542,10.323-4.96,9.862-7.591
			c-0.461-2.631-3.991-0.468-3.991-0.468l-9.503,0.627l-12.879-10.607l-3.383,3.175L91.638,196.332z"/>
	</g>
	<g>
		<path d="M112.104,195.1c-1.412,0-2.948-0.177-4.56-0.638c-0.17-0.048-0.269-0.226-0.22-0.397c0.048-0.171,0.224-0.273,0.397-0.22
			c6.586,1.882,12.042-1.252,12.097-1.284c0.152-0.09,0.35-0.039,0.439,0.114c0.09,0.153,0.039,0.35-0.114,0.439
			C119.967,193.219,116.701,195.1,112.104,195.1z"/>
	</g>
	<g>
		<path d="M110.431,199.265c-1.551,0-3.128-0.188-4.475-0.724c-0.165-0.065-0.245-0.252-0.18-0.417
			c0.065-0.165,0.251-0.245,0.417-0.18c4.219,1.678,11.141-0.317,11.21-0.337c0.171-0.049,0.349,0.048,0.399,0.218
			c0.05,0.17-0.047,0.349-0.218,0.398C117.38,198.283,113.975,199.265,110.431,199.265z"/>
	</g>
	<g>
		<path style="fill:#F4E6E6;" d="M57.639,149.944c0,0-22.53,21.409-17.783,39.752c6.28,24.265,54.843,10.144,54.843,10.144
			l-1.64-22.62l-29.178-1.599L57.639,149.944z"/>
	</g>
	<g>
		<path style="fill:#5C69A5;" d="M59.163,176.448c-1.614,0-3.099-0.103-3.903-0.414c-0.391-0.151-0.605-0.36-0.638-0.622
			c-0.021-0.165,0.025-0.412,0.361-0.65c1.371-0.973,6.758-1.465,11.098,0.686c0.128,0.063,0.199,0.204,0.173,0.344
			c-0.025,0.141-0.14,0.248-0.282,0.263C65.748,176.078,62.223,176.448,59.163,176.448z M55.287,175.332
			c0.035,0.025,0.097,0.061,0.204,0.103c1.668,0.644,6.804,0.299,9.181,0.095C60.259,173.838,55.784,174.794,55.287,175.332z"/>
	</g>
</g>
<g>
	<g>
		<ellipse style="fill:#EAD8D8;" cx="314.849" cy="88.96" rx="29.549" ry="15.53"/>
	</g>
	<g>
		<polygon style="fill:#EAD8D8;" points="309.369,101.007 337.708,119.762 326.66,97.23 		"/>
	</g>
</g>
</svg>
