<?xml version="1.0" encoding="UTF-8"?>
<svg id="Layer_1" data-name="Layer 1" xmlns="http://www.w3.org/2000/svg" viewBox="0 0 1920 430">
  <defs>
    <style>
      .cls-1 {
        stroke-width: 3px;
      }

      .cls-1, .cls-2, .cls-3, .cls-4 {
        stroke-miterlimit: 10;
      }

      .cls-1, .cls-3 {
        stroke: #6d6e71;
        stroke-linecap: round;
      }

      .cls-1, .cls-3, .cls-4 {
        fill: none;
      }

      .cls-2 {
        fill: #fff;
        stroke: #27a9e0;
        stroke-width: 5px;
      }

      .cls-3, .cls-4 {
        stroke-width: 4px;
      }

      .cls-4 {
        stroke: #27aae1;
      }

      .cls-5 {
        font-family: ArialRoundedMTBold, 'Arial Rounded MT Bold';
        font-size: 20.04px;
      }

      .cls-5, .cls-6, .cls-7 {
        fill: #6d6e71;
      }

      .cls-8 {
        fill: #27aae1;
      }

      .cls-8, .cls-6, .cls-9 {
        stroke-width: 0px;
      }

      .cls-9 {
        fill: #f0f0f1;
      }

      .cls-7 {
        font-family: Guillon-Demi, Guillon;
        font-size: 32px;
        font-weight: 300;
      }
    </style>
  </defs>
  <rect class="cls-9" width="1920" height="430"/>
  <g>
    <line class="cls-4" x1="385.8" y1="215" x2="479.87" y2="215"/>
    <polygon class="cls-8" points="474.03 234.95 508.58 215 474.03 195.05 474.03 234.95"/>
  </g>
  <g>
    <line class="cls-4" x1="878.91" y1="215" x2="972.99" y2="215"/>
    <polygon class="cls-8" points="967.15 234.95 1001.69 215 967.15 195.05 967.15 234.95"/>
  </g>
  <g>
    <line class="cls-4" x1="1383.84" y1="215" x2="1477.91" y2="215"/>
    <polygon class="cls-8" points="1472.08 234.95 1506.62 215 1472.08 195.05 1472.08 234.95"/>
  </g>
  <rect class="cls-2" x="1042.06" y="72.5" width="285" height="285" rx="29.63" ry="29.63"/>
  <g>
    <path class="cls-6" d="m1113.39,99.46c3.9,0,6.78,1.76,8.77,4.64l-3.26,2.46c-1.25-1.92-2.98-3.3-5.54-3.3-3.97,0-6.62,3.26-6.62,8s2.66,8.06,6.62,8.06c2.62,0,4.42-1.44,5.7-3.36l3.26,2.46c-2.02,2.85-5.06,4.7-8.93,4.7-6.56,0-10.94-4.9-10.94-11.87s4.38-11.81,10.94-11.81Z"/>
    <path class="cls-6" d="m1132.11,106.02c4.77,0,8.19,3.55,8.19,8.54s-3.42,8.58-8.19,8.58-8.19-3.52-8.19-8.58,3.42-8.54,8.19-8.54Zm0,13.7c2.43,0,4.1-2.11,4.1-5.15s-1.66-5.12-4.1-5.12-4.1,2.11-4.1,5.12,1.66,5.15,4.1,5.15Z"/>
    <path class="cls-6" d="m1147.38,121.22v8.16h-4.03v-22.88h3.78v1.76c1.15-1.38,2.78-2.24,5.02-2.24,4.42,0,7.58,3.52,7.58,8.58s-3.17,8.54-7.68,8.54c-1.98,0-3.55-.7-4.67-1.92Zm4-1.6c2.43,0,4.26-2.02,4.26-5.02s-1.82-5.12-4.26-5.12-4.29,2.05-4.29,5.12c0,2.91,1.79,5.02,4.29,5.02Z"/>
    <path class="cls-6" d="m1172.05,120.94c-1.09,1.15-3.07,2.21-5.25,2.21-2.59,0-5.15-1.54-5.15-4.64,0-4.13,4.54-6.05,10.21-6.21v-.32c0-1.63-1.28-2.5-2.91-2.5-1.28,0-2.69.51-4.03,2.02l-2.69-2.24c1.44-1.86,3.87-3.23,6.88-3.23,4.06,0,6.72,1.82,6.72,6.69v9.95h-3.78v-1.73Zm-.19-4.83v-.83c-5.22.16-6.11,1.92-6.11,2.91,0,1.22.99,1.76,2.18,1.76,1.73,0,3.94-1.44,3.94-3.84Z"/>
    <path class="cls-6" d="m1181.36,129.38l2.43-6.62-6.21-16.25h4.38l3.71,11.55,3.71-11.55h4.19l-8.19,22.88h-4.03Z"/>
    <path class="cls-6" d="m1199.7,122.66h-4.03v-16.16h3.84v1.79c.99-1.34,2.56-2.27,4.45-2.27s3.62.96,4.42,2.56c.86-1.79,2.75-2.56,4.45-2.56,2.85,0,6.02,1.95,6.02,6.3v10.33h-4.03v-9.63c0-2.05-.9-3.2-2.59-3.2-1.89,0-2.94,1.34-2.94,3.33v9.5h-4.03v-9.63c0-2.05-.83-3.2-2.59-3.2-1.89,0-2.94,1.28-2.94,3.68v9.15Z"/>
    <path class="cls-6" d="m1229.84,123.14c-4.77,0-8.13-3.52-8.13-8.58s3.36-8.54,8.06-8.54,7.58,3.55,7.58,8.54v1.31h-11.55c.42,2.3,1.98,3.84,4.03,3.84,1.41,0,2.72-.7,3.81-2.3l3.14,1.86c-1.57,2.43-3.9,3.87-6.94,3.87Zm-4.06-10.01h7.52c-.32-2.43-1.5-3.74-3.58-3.74s-3.55,1.38-3.94,3.74Z"/>
    <path class="cls-6" d="m1244.43,122.66h-4.03v-16.16h3.84v2.24c.83-1.63,2.4-2.72,4.67-2.72,2.98,0,5.86,1.95,5.86,6.3v10.33h-4.03v-9.38c0-2.34-.96-3.55-2.98-3.55s-3.33,1.47-3.33,3.84v9.09Z"/>
    <path class="cls-6" d="m1265.14,123.14c-4.16,0-5.73-2.62-5.73-5.92v-7.58h-2.4v-3.14h2.4v-5.28h4.03v5.28h3.87v3.14h-3.87v7.65c0,1.76.74,2.4,2.14,2.4.48,0,1.02-.06,1.41-.13l.29,3.39c-.77.13-1.47.19-2.14.19Z"/>
    <path class="cls-6" d="m1091.25,159.33c-1.09,1.15-3.07,2.21-5.25,2.21-2.59,0-5.15-1.54-5.15-4.64,0-4.13,4.54-6.05,10.21-6.21v-.32c0-1.63-1.28-2.5-2.91-2.5-1.28,0-2.69.51-4.03,2.02l-2.69-2.24c1.44-1.86,3.87-3.23,6.88-3.23,4.06,0,6.72,1.82,6.72,6.69v9.95h-3.78v-1.73Zm-.19-4.83v-.83c-5.22.16-6.11,1.92-6.11,2.91,0,1.22.99,1.76,2.18,1.76,1.73,0,3.94-1.44,3.94-3.84Z"/>
    <path class="cls-6" d="m1102.9,161.06h-4.03v-16.16h3.84v1.79c.99-1.34,2.56-2.27,4.45-2.27s3.62.96,4.42,2.56c.86-1.79,2.75-2.56,4.45-2.56,2.85,0,6.02,1.95,6.02,6.3v10.33h-4.03v-9.63c0-2.05-.9-3.2-2.59-3.2-1.89,0-2.94,1.34-2.94,3.33v9.5h-4.03v-9.63c0-2.05-.83-3.2-2.59-3.2-1.89,0-2.94,1.28-2.94,3.68v9.15Z"/>
    <path class="cls-6" d="m1133.11,144.42c4.77,0,8.19,3.55,8.19,8.54s-3.42,8.58-8.19,8.58-8.19-3.52-8.19-8.58,3.42-8.54,8.19-8.54Zm0,13.7c2.43,0,4.1-2.11,4.1-5.15s-1.66-5.12-4.1-5.12-4.1,2.11-4.1,5.12,1.66,5.15,4.1,5.15Z"/>
    <path class="cls-6" d="m1154.39,159.11c-.86,1.47-2.43,2.43-4.58,2.43-3.04,0-5.95-1.95-5.95-6.3v-10.34h4.03v9.38c0,2.34.96,3.55,2.98,3.55s3.33-1.47,3.33-3.84v-9.09h4.03v16.16h-3.84v-1.95Z"/>
    <path class="cls-6" d="m1166.26,161.06h-4.03v-16.16h3.84v2.24c.83-1.63,2.4-2.72,4.67-2.72,2.98,0,5.86,1.95,5.86,6.3v10.33h-4.03v-9.38c0-2.34-.96-3.55-2.98-3.55s-3.33,1.47-3.33,3.84v9.09Z"/>
    <path class="cls-6" d="m1186.96,161.54c-4.16,0-5.73-2.62-5.73-5.92v-7.58h-2.4v-3.14h2.4v-5.28h4.03v5.28h3.87v3.14h-3.87v7.65c0,1.76.74,2.4,2.14,2.4.48,0,1.02-.06,1.41-.13l.29,3.39c-.77.13-1.47.19-2.14.19Z"/>
    <path class="cls-6" d="m1198.58,161.06v-16.16h3.84v2.27c.86-1.73,2.72-2.75,5.15-2.75l-.16,3.97c-3.33.06-4.8,1.38-4.8,3.97v8.7h-4.03Z"/>
    <path class="cls-6" d="m1216.98,161.54c-4.77,0-8.13-3.52-8.13-8.58s3.36-8.54,8.06-8.54,7.58,3.55,7.58,8.54v1.31h-11.55c.42,2.3,1.98,3.84,4.03,3.84,1.41,0,2.72-.7,3.81-2.3l3.14,1.86c-1.57,2.43-3.9,3.87-6.94,3.87Zm-4.06-10.01h7.52c-.32-2.43-1.5-3.74-3.58-3.74s-3.55,1.38-3.94,3.74Z"/>
    <path class="cls-6" d="m1231.34,161.06l-5.89-16.16h4.38l3.71,11.55,3.71-11.55h4.19l-5.89,16.16h-4.22Z"/>
    <path class="cls-6" d="m1245.55,137.42c1.31,0,2.4,1.09,2.4,2.4s-1.09,2.43-2.4,2.43-2.4-1.12-2.4-2.43,1.06-2.4,2.4-2.4Zm-2.02,7.49h4.03v16.16h-4.03v-16.16Z"/>
    <path class="cls-6" d="m1258.73,161.54c-4.77,0-8.13-3.52-8.13-8.58s3.36-8.54,8.06-8.54,7.58,3.55,7.58,8.54v1.31h-11.55c.42,2.3,1.98,3.84,4.03,3.84,1.41,0,2.72-.7,3.81-2.3l3.14,1.86c-1.57,2.43-3.9,3.87-6.94,3.87Zm-4.06-10.01h7.52c-.32-2.43-1.5-3.74-3.58-3.74s-3.55,1.38-3.94,3.74Z"/>
    <path class="cls-6" d="m1278.22,153l-2.53,8.06h-4.22l-4.1-16.16h4.19l2.5,11.52,2.78-10.72h2.75l2.94,10.75,2.56-11.55h3.97l-4.1,16.16h-4.22l-2.53-8.06Z"/>
    <path class="cls-6" d="m1101.95,197.73c-1.09,1.15-3.07,2.21-5.25,2.21-2.59,0-5.15-1.54-5.15-4.64,0-4.13,4.54-6.05,10.21-6.21v-.32c0-1.63-1.28-2.5-2.91-2.5-1.28,0-2.69.51-4.03,2.02l-2.69-2.24c1.44-1.86,3.87-3.23,6.88-3.23,4.06,0,6.72,1.82,6.72,6.69v9.95h-3.78v-1.73Zm-.19-4.83v-.83c-5.22.16-6.11,1.92-6.11,2.91,0,1.22.99,1.76,2.18,1.76,1.73,0,3.94-1.44,3.94-3.84Z"/>
    <path class="cls-6" d="m1113.6,199.46h-4.03v-16.16h3.84v2.24c.83-1.63,2.4-2.72,4.67-2.72,2.98,0,5.86,1.95,5.86,6.3v10.33h-4.03v-9.38c0-2.34-.96-3.55-2.98-3.55s-3.33,1.47-3.33,3.84v9.09Z"/>
    <path class="cls-6" d="m1139.42,197.7c-1.15,1.38-2.78,2.24-5.02,2.24-4.42,0-7.58-3.52-7.58-8.58s3.17-8.54,7.68-8.54c1.98,0,3.55.7,4.67,1.92v-8h4.03v22.72h-3.78v-1.76Zm-4.26-1.22c2.5,0,4.29-2.05,4.29-5.12,0-2.91-1.79-5.02-4.29-5.02s-4.26,2.02-4.26,5.02,1.82,5.12,4.26,5.12Z"/>
    <path class="cls-6" d="m1163.36,197.73c-1.09,1.15-3.07,2.21-5.25,2.21-2.59,0-5.15-1.54-5.15-4.64,0-4.13,4.54-6.05,10.21-6.21v-.32c0-1.63-1.28-2.5-2.91-2.5-1.28,0-2.69.51-4.03,2.02l-2.69-2.24c1.44-1.86,3.87-3.23,6.88-3.23,4.06,0,6.72,1.82,6.72,6.69v9.95h-3.78v-1.73Zm-.19-4.83v-.83c-5.22.16-6.11,1.92-6.11,2.91,0,1.22.99,1.76,2.18,1.76,1.73,0,3.94-1.44,3.94-3.84Z"/>
    <path class="cls-6" d="m1175.01,198.02v8.16h-4.03v-22.88h3.78v1.76c1.15-1.38,2.78-2.24,5.02-2.24,4.42,0,7.58,3.52,7.58,8.58s-3.17,8.54-7.68,8.54c-1.98,0-3.55-.7-4.67-1.92Zm4-1.6c2.43,0,4.26-2.02,4.26-5.02s-1.82-5.12-4.26-5.12-4.29,2.05-4.29,5.12c0,2.91,1.79,5.02,4.29,5.02Z"/>
    <path class="cls-6" d="m1194.43,198.02v8.16h-4.03v-22.88h3.78v1.76c1.15-1.38,2.78-2.24,5.02-2.24,4.42,0,7.58,3.52,7.58,8.58s-3.17,8.54-7.68,8.54c-1.98,0-3.55-.7-4.67-1.92Zm4-1.6c2.43,0,4.26-2.02,4.26-5.02s-1.82-5.12-4.26-5.12-4.29,2.05-4.29,5.12c0,2.91,1.79,5.02,4.29,5.02Z"/>
    <path class="cls-6" d="m1209.82,199.46v-16.16h3.84v2.27c.86-1.73,2.72-2.75,5.15-2.75l-.16,3.97c-3.33.06-4.8,1.38-4.8,3.97v8.7h-4.03Z"/>
    <path class="cls-6" d="m1228.29,182.82c4.77,0,8.19,3.55,8.19,8.54s-3.42,8.58-8.19,8.58-8.19-3.52-8.19-8.58,3.42-8.54,8.19-8.54Zm0,13.7c2.43,0,4.1-2.11,4.1-5.15s-1.66-5.12-4.1-5.12-4.1,2.11-4.1,5.12,1.66,5.15,4.1,5.15Z"/>
    <path class="cls-6" d="m1243.33,199.46l-5.89-16.16h4.38l3.71,11.55,3.71-11.55h4.19l-5.89,16.16h-4.22Z"/>
    <path class="cls-6" d="m1264.8,197.73c-1.09,1.15-3.07,2.21-5.25,2.21-2.59,0-5.15-1.54-5.15-4.64,0-4.13,4.54-6.05,10.21-6.21v-.32c0-1.63-1.28-2.5-2.91-2.5-1.28,0-2.69.51-4.03,2.02l-2.69-2.24c1.44-1.86,3.87-3.23,6.88-3.23,4.06,0,6.72,1.82,6.72,6.69v9.95h-3.78v-1.73Zm-.19-4.83v-.83c-5.22.16-6.11,1.92-6.11,2.91,0,1.22.99,1.76,2.18,1.76,1.73,0,3.94-1.44,3.94-3.84Z"/>
    <path class="cls-6" d="m1272.42,176.74h4.03v22.72h-4.03v-22.72Z"/>
  </g>
  <g>
    <g>
      <g>
        <path class="cls-6" d="m1213.73,319.61h-3.38c-1.87,0-3.4-1.52-3.4-3.4v-3.17c0-1.99,1.62-3.61,3.61-3.61h3.21c1.85,0,3.35,1.5,3.35,3.35v.18c0,.86-.69,1.55-1.55,1.55s-1.55-.7-1.55-1.55v-.18c0-.14-.11-.25-.25-.25h-3.21c-.28,0-.51.23-.51.5v3.17c0,.16.13.29.29.29h3.38c.86,0,1.55.7,1.55,1.55s-.69,1.55-1.55,1.55Z"/>
        <path class="cls-6" d="m1213.51,326.68h-3.21c-1.85,0-3.35-1.5-3.35-3.35v-.42c0-.86.69-1.55,1.55-1.55s1.55.7,1.55,1.55v.42c0,.14.11.25.25.25h3.21c.28,0,.51-.23.51-.5v-3.17c0-.16-.13-.29-.29-.29h-3.38c-.86,0-1.55-.7-1.55-1.55s.69-1.55,1.55-1.55h3.38c1.87,0,3.4,1.52,3.4,3.4v3.17c0,1.99-1.62,3.61-3.61,3.61Z"/>
      </g>
      <path class="cls-6" d="m1212.03,312.54c-.86,0-1.55-.7-1.55-1.55v-2.21c0-.86.69-1.55,1.55-1.55s1.55.7,1.55,1.55v2.21c0,.86-.69,1.55-1.55,1.55Z"/>
      <path class="cls-6" d="m1212.03,328.89c-.86,0-1.55-.7-1.55-1.55v-2.21c0-.86.69-1.55,1.55-1.55s1.55.7,1.55,1.55v2.21c0,.86-.69,1.55-1.55,1.55Z"/>
    </g>
    <g>
      <path class="cls-6" d="m1148.74,338.1h0c-7.55,0-13.7-6.14-13.7-13.7v-7.47c0-.95.77-1.73,1.73-1.73h16.3c.96,0,1.73.77,1.73,1.73s-.77,1.73-1.73,1.73h-14.57v5.74c0,5.64,4.59,10.24,10.24,10.24h.1c5.6-.05,10.15-4.62,10.15-10.24v-82.53c0-.95.77-1.73,1.73-1.73h70.82c.96,0,1.73.77,1.73,1.73v82.23c0,7.52-6.12,13.66-13.63,13.7l-70.77.31s-.08,0-.12,0h0Zm13.7-94.5v80.8c0,4.05-1.76,7.69-4.56,10.2l61.74-.27c5.62-.03,10.19-4.62,10.19-10.24v-80.5h-67.36Z"/>
      <g>
        <path class="cls-6" d="m1174.32,258.46h-3.55c-.68,0-1.23-.55-1.23-1.23v-5.67c0-1.46,1.19-2.65,2.65-2.65h2.13c2.64,0,4.78,2.14,4.78,4.78s-2.14,4.78-4.78,4.78Zm-2.31-2.47h2.31c1.28,0,2.31-1.04,2.31-2.31s-1.04-2.31-2.31-2.31h-2.13c-.1,0-.19.08-.19.18v4.44Z"/>
        <path class="cls-6" d="m1170.77,265.55c-.68,0-1.23-.55-1.23-1.23v-7.09c0-.68.55-1.23,1.23-1.23s1.23.55,1.23,1.23v7.09c0,.68-.55,1.23-1.23,1.23Z"/>
        <g>
          <path class="cls-6" d="m1175.19,271.47c-.28,0-.56-.09-.79-.29-.52-.44-.59-1.21-.16-1.74l9.37-11.23c.44-.52,1.21-.59,1.74-.16.52.44.59,1.21.16,1.74l-9.37,11.23c-.24.29-.59.44-.95.44Z"/>
          <path class="cls-6" d="m1184.56,271.47c-.36,0-.71-.15-.95-.45l-10.7-12.94c-.43-.53-.36-1.3.16-1.74.52-.43,1.3-.36,1.74.16l10.7,12.94c.43.53.36,1.3-.16,1.74-.23.19-.51.28-.79.28Z"/>
        </g>
      </g>
    </g>
    <path class="cls-6" d="m1197.8,326.68h-23.62c-.86,0-1.55-.7-1.55-1.55s.69-1.55,1.55-1.55h23.62c.86,0,1.55.7,1.55,1.55s-.69,1.55-1.55,1.55Z"/>
    <path class="cls-6" d="m1197.8,317.8h-23.62c-.86,0-1.55-.7-1.55-1.55s.69-1.55,1.55-1.55h23.62c.86,0,1.55.7,1.55,1.55s-.69,1.55-1.55,1.55Z"/>
    <polyline class="cls-3" points="1182.6 286.7 1192.5 297.94 1220.17 275.47"/>
  </g>
  <rect class="cls-2" x="65.02" y="72.5" width="285" height="285" rx="29.63" ry="29.63"/>
  <g>
    <path class="cls-6" d="m145.75,99.46c3.9,0,6.78,1.76,8.77,4.64l-3.26,2.46c-1.25-1.92-2.98-3.3-5.54-3.3-3.97,0-6.62,3.26-6.62,8s2.66,8.06,6.62,8.06c2.62,0,4.42-1.44,5.7-3.36l3.26,2.46c-2.02,2.85-5.06,4.7-8.93,4.7-6.56,0-10.94-4.9-10.94-11.87s4.38-11.81,10.94-11.81Z"/>
    <path class="cls-6" d="m164.47,106.02c4.77,0,8.19,3.55,8.19,8.54s-3.42,8.58-8.19,8.58-8.19-3.52-8.19-8.58,3.42-8.54,8.19-8.54Zm0,13.7c2.43,0,4.1-2.11,4.1-5.15s-1.66-5.12-4.1-5.12-4.1,2.11-4.1,5.12,1.66,5.15,4.1,5.15Z"/>
    <path class="cls-6" d="m179.73,122.66h-4.03v-16.16h3.84v1.79c.99-1.34,2.56-2.27,4.45-2.27s3.62.96,4.42,2.56c.86-1.79,2.75-2.56,4.45-2.56,2.85,0,6.02,1.95,6.02,6.3v10.33h-4.03v-9.63c0-2.05-.9-3.2-2.59-3.2-1.89,0-2.94,1.34-2.94,3.33v9.5h-4.03v-9.63c0-2.05-.83-3.2-2.59-3.2-1.89,0-2.94,1.28-2.94,3.68v9.15Z"/>
    <path class="cls-6" d="m206.9,121.22v8.16h-4.03v-22.88h3.78v1.76c1.15-1.38,2.78-2.24,5.02-2.24,4.42,0,7.58,3.52,7.58,8.58s-3.17,8.54-7.68,8.54c-1.98,0-3.55-.7-4.67-1.92Zm4-1.6c2.43,0,4.26-2.02,4.26-5.02s-1.82-5.12-4.26-5.12-4.29,2.05-4.29,5.12c0,2.91,1.79,5.02,4.29,5.02Z"/>
    <path class="cls-6" d="m222.29,99.94h4.03v22.72h-4.03v-22.72Z"/>
    <path class="cls-6" d="m237.49,123.14c-4.77,0-8.13-3.52-8.13-8.58s3.36-8.54,8.06-8.54,7.58,3.55,7.58,8.54v1.31h-11.55c.42,2.3,1.98,3.84,4.03,3.84,1.41,0,2.72-.7,3.81-2.3l3.14,1.86c-1.57,2.43-3.9,3.87-6.94,3.87Zm-4.06-10.01h7.52c-.32-2.43-1.5-3.74-3.58-3.74s-3.55,1.38-3.94,3.74Z"/>
    <path class="cls-6" d="m254.42,123.14c-4.16,0-5.73-2.62-5.73-5.92v-7.58h-2.4v-3.14h2.4v-5.28h4.03v5.28h3.87v3.14h-3.87v7.65c0,1.76.74,2.4,2.14,2.4.48,0,1.02-.06,1.41-.13l.29,3.39c-.77.13-1.47.19-2.14.19Z"/>
    <path class="cls-6" d="m266.32,123.14c-4.77,0-8.13-3.52-8.13-8.58s3.36-8.54,8.06-8.54,7.58,3.55,7.58,8.54v1.31h-11.55c.42,2.3,1.98,3.84,4.03,3.84,1.41,0,2.72-.7,3.81-2.3l3.14,1.86c-1.57,2.43-3.9,3.87-6.94,3.87Zm-4.06-10.01h7.52c-.32-2.43-1.5-3.74-3.58-3.74s-3.55,1.38-3.94,3.74Z"/>
    <path class="cls-6" d="m135.3,159.33c-1.09,1.15-3.07,2.21-5.25,2.21-2.59,0-5.15-1.54-5.15-4.64,0-4.13,4.54-6.05,10.21-6.21v-.32c0-1.63-1.28-2.5-2.91-2.5-1.28,0-2.69.51-4.03,2.02l-2.69-2.24c1.44-1.86,3.87-3.23,6.88-3.23,4.06,0,6.72,1.82,6.72,6.69v9.95h-3.78v-1.73Zm-.19-4.83v-.83c-5.22.16-6.11,1.92-6.11,2.91,0,1.22.99,1.76,2.18,1.76,1.73,0,3.94-1.44,3.94-3.84Z"/>
    <path class="cls-6" d="m146.95,161.06h-4.03v-16.16h3.84v2.24c.83-1.63,2.4-2.72,4.67-2.72,2.98,0,5.86,1.95,5.86,6.3v10.33h-4.03v-9.38c0-2.34-.96-3.55-2.98-3.55s-3.33,1.47-3.33,3.84v9.09Z"/>
    <path class="cls-6" d="m172.77,159.3c-1.15,1.38-2.78,2.24-5.02,2.24-4.42,0-7.58-3.52-7.58-8.58s3.17-8.54,7.68-8.54c1.98,0,3.55.7,4.67,1.92v-8h4.03v22.72h-3.78v-1.76Zm-4.26-1.22c2.5,0,4.29-2.05,4.29-5.12,0-2.91-1.79-5.02-4.29-5.02s-4.26,2.02-4.26,5.02,1.82,5.12,4.26,5.12Z"/>
    <path class="cls-6" d="m188.99,155.72c1.28,1.7,2.62,2.43,4.42,2.43,1.47,0,2.3-.61,2.3-1.47,0-.74-.51-1.31-2.21-1.89l-2.24-.77c-2.72-.93-4.06-2.78-4.06-4.8,0-2.53,2.37-4.8,5.82-4.8,2.78,0,4.93,1.47,5.95,2.85l-2.69,2.24c-.58-.77-1.76-1.7-3.17-1.7-1.25,0-1.98.64-1.98,1.41s.61,1.25,1.5,1.54l2.5.8c3.17,1.02,4.51,2.85,4.51,4.99,0,2.85-2.5,4.99-6.24,4.99-3.42,0-5.79-1.57-7.26-3.74l2.85-2.08Z"/>
    <path class="cls-6" d="m212.58,159.11c-.86,1.47-2.43,2.43-4.58,2.43-3.04,0-5.95-1.95-5.95-6.3v-10.34h4.03v9.38c0,2.34.96,3.55,2.98,3.55s3.33-1.47,3.33-3.84v-9.09h4.03v16.16h-3.84v-1.95Z"/>
    <path class="cls-6" d="m224.19,159.33v1.73h-3.78v-22.72h4.03v8.03c1.12-1.22,2.72-1.95,4.77-1.95,4.42,0,7.58,3.52,7.58,8.58s-3.17,8.54-7.68,8.54c-2.14,0-3.78-.8-4.93-2.21Zm4.26-1.31c2.43,0,4.26-2.02,4.26-5.02s-1.82-5.12-4.26-5.12-4.29,2.05-4.29,5.12c0,2.91,1.79,5.02,4.29,5.02Z"/>
    <path class="cls-6" d="m243.87,161.06h-4.03v-16.16h3.84v1.79c.99-1.34,2.56-2.27,4.45-2.27s3.62.96,4.42,2.56c.86-1.79,2.75-2.56,4.45-2.56,2.85,0,6.02,1.95,6.02,6.3v10.33h-4.03v-9.63c0-2.05-.9-3.2-2.59-3.2-1.89,0-2.94,1.34-2.94,3.33v9.5h-4.03v-9.63c0-2.05-.83-3.2-2.59-3.2-1.89,0-2.94,1.28-2.94,3.68v9.15Z"/>
    <path class="cls-6" d="m269.03,137.42c1.31,0,2.4,1.09,2.4,2.4s-1.09,2.43-2.4,2.43-2.4-1.12-2.4-2.43,1.06-2.4,2.4-2.4Zm-2.02,7.49h4.03v16.16h-4.03v-16.16Z"/>
    <path class="cls-6" d="m281.57,161.54c-4.16,0-5.73-2.62-5.73-5.92v-7.58h-2.4v-3.14h2.4v-5.28h4.03v5.28h3.87v3.14h-3.87v7.65c0,1.76.74,2.4,2.14,2.4.48,0,1.02-.06,1.41-.13l.29,3.39c-.77.13-1.47.19-2.14.19Z"/>
    <path class="cls-6" d="m133.7,197.73v1.73h-3.78v-22.72h4.03v8.03c1.12-1.22,2.72-1.95,4.77-1.95,4.42,0,7.58,3.52,7.58,8.58s-3.17,8.54-7.68,8.54c-2.14,0-3.78-.8-4.93-2.21Zm4.26-1.31c2.43,0,4.26-2.02,4.26-5.02s-1.82-5.12-4.26-5.12-4.29,2.05-4.29,5.12c0,2.91,1.79,5.02,4.29,5.02Z"/>
    <path class="cls-6" d="m156.36,199.94c-4.77,0-8.13-3.52-8.13-8.58s3.36-8.54,8.06-8.54,7.58,3.55,7.58,8.54v1.31h-11.55c.42,2.3,1.98,3.84,4.03,3.84,1.41,0,2.72-.7,3.81-2.3l3.14,1.86c-1.57,2.43-3.9,3.87-6.94,3.87Zm-4.06-10.01h7.52c-.32-2.43-1.5-3.74-3.58-3.74s-3.55,1.38-3.94,3.74Z"/>
    <path class="cls-6" d="m166.92,176.74h4.03v22.72h-4.03v-22.72Z"/>
    <path class="cls-6" d="m182.18,182.82c4.77,0,8.19,3.55,8.19,8.54s-3.42,8.58-8.19,8.58-8.19-3.52-8.19-8.58,3.42-8.54,8.19-8.54Zm0,13.7c2.43,0,4.1-2.11,4.1-5.15s-1.66-5.12-4.1-5.12-4.1,2.11-4.1,5.12,1.66,5.15,4.1,5.15Z"/>
    <path class="cls-6" d="m202.34,191.4l-2.53,8.06h-4.22l-4.1-16.16h4.19l2.5,11.52,2.78-10.72h2.75l2.94,10.75,2.56-11.55h3.97l-4.1,16.16h-4.22l-2.53-8.06Z"/>
    <path class="cls-6" d="m226.66,186.44v13.02h-4.03v-13.02h-2.24v-3.14h2.24v-1.12c0-3.3,1.57-5.92,5.73-5.92.74,0,1.47.06,2.3.19l-.29,3.39c-.42-.06-1.02-.13-1.57-.13-1.41,0-2.14.64-2.14,2.4v1.18h3.36v3.14h-3.36Z"/>
    <path class="cls-6" d="m239.49,182.82c4.77,0,8.19,3.55,8.19,8.54s-3.42,8.58-8.19,8.58-8.19-3.52-8.19-8.58,3.42-8.54,8.19-8.54Zm0,13.7c2.43,0,4.1-2.11,4.1-5.15s-1.66-5.12-4.1-5.12-4.1,2.11-4.1,5.12,1.66,5.15,4.1,5.15Z"/>
    <path class="cls-6" d="m250.72,199.46v-16.16h3.84v2.27c.86-1.73,2.72-2.75,5.15-2.75l-.16,3.97c-3.33.06-4.8,1.38-4.8,3.97v8.7h-4.03Z"/>
    <path class="cls-6" d="m266.15,199.46h-4.03v-16.16h3.84v1.79c.99-1.34,2.56-2.27,4.45-2.27s3.62.96,4.42,2.56c.86-1.79,2.75-2.56,4.45-2.56,2.85,0,6.02,1.95,6.02,6.3v10.33h-4.03v-9.63c0-2.05-.9-3.2-2.59-3.2-1.89,0-2.94,1.34-2.94,3.33v9.5h-4.03v-9.63c0-2.05-.83-3.2-2.59-3.2-1.89,0-2.94,1.28-2.94,3.68v9.15Z"/>
  </g>
  <g>
    <g>
      <g>
        <path class="cls-6" d="m144.72,337.1h-5.85c-1.53,0-2.77-1.24-2.77-2.77v-24.44c0-1.53,1.24-2.77,2.77-2.77h5.85c1.53,0,2.77,1.24,2.77,2.77v24.44c0,1.53-1.24,2.77-2.77,2.77Zm-5.59-3.04h5.32v-23.91h-5.32v23.91Z"/>
        <path class="cls-6" d="m175.52,337.05h-17.52s-.06,0-.09,0c-.45-.03-4.51-.3-7-1.87-.71-.45-.92-1.38-.48-2.09.45-.71,1.38-.92,2.09-.48,1.53.96,4.46,1.34,5.51,1.41h17.48c3.42,0,6.37-2.32,7.18-5.64l3.03-12.43c.3-1.22.02-2.48-.75-3.47-.77-.99-1.94-1.55-3.19-1.55h-13.83c-.51,0-.99-.26-1.27-.68-.28-.43-.33-.96-.13-1.43l1.37-3.2c1.46-3.41,2.19-7.03,2.16-10.74,0-1.17-.97-2.12-2.14-2.12-.8,0-1.23.19-1.66.73-.41.52-.87,1.53-1.41,2.71-2.13,4.73-5.7,12.65-17.92,16.66-.8.26-1.65-.17-1.92-.97-.26-.8.17-1.65.97-1.92,10.95-3.6,14.05-10.47,16.1-15.02.64-1.42,1.15-2.55,1.81-3.37,1.01-1.26,2.33-1.87,4.03-1.87,2.83,0,5.15,2.3,5.17,5.14.03,4.13-.78,8.15-2.41,11.95l-.46,1.08h11.53c2.19,0,4.22.99,5.58,2.71,1.35,1.72,1.83,3.93,1.31,6.06l-3.03,12.43c-1.14,4.69-5.31,7.96-10.13,7.96Z"/>
      </g>
      <g>
        <g>
          <path class="cls-6" d="m172.63,287.99c-.84,0-1.52-.68-1.52-1.52v-32.7c0-.84.68-1.52,1.52-1.52h10.75c.84,0,1.52.68,1.52,1.52s-.68,1.52-1.52,1.52h-9.23v31.18c0,.84-.68,1.52-1.52,1.52Z"/>
          <path class="cls-6" d="m243.12,338.1h-49.13c-.84,0-1.52-.68-1.52-1.52s.68-1.52,1.52-1.52h47.61v-79.77h-9.23c-.84,0-1.52-.68-1.52-1.52s.68-1.52,1.52-1.52h10.75c.84,0,1.52.68,1.52,1.52v82.81c0,.84-.68,1.52-1.52,1.52Z"/>
        </g>
        <path class="cls-6" d="m226.1,259.94h-36.45c-.84,0-1.52-.68-1.52-1.52v-9.63c0-.84.68-1.52,1.52-1.52h36.45c.84,0,1.52.68,1.52,1.52v9.63c0,.84-.68,1.52-1.52,1.52Zm-34.93-3.04h33.42v-6.59h-33.42v6.59Z"/>
      </g>
    </g>
    <path class="cls-6" d="m205.1,263.77c.72.36,1.01,1.24.64,1.96-.36.72-1.24,1.01-1.96.64-.97-.49-2.07-.72-3.16-.64-3.37.22-5.93,3.14-5.7,6.51.22,3.37,3.14,5.92,6.51,5.7,2.39-.16,4.48-1.71,5.33-3.95.28-.75,1.13-1.14,1.88-.85.75.28,1.14,1.13.85,1.88-1.25,3.31-4.34,5.6-7.87,5.83-.2.01-.4.02-.6.02-4.72,0-8.7-3.67-9.01-8.45-.33-4.97,3.45-9.29,8.43-9.62"/>
    <path class="cls-6" d="m202.48,274.92c-.36,0-.72-.13-1.01-.4l-3.42-3.24c-.59-.56-.61-1.48-.05-2.06.56-.58,1.48-.61,2.06-.05l2.38,2.26,5.04-5.14c.56-.58,1.49-.58,2.07-.02.58.57.58,1.49.02,2.07l-6.04,6.16c-.29.29-.66.44-1.04.44Z"/>
    <path class="cls-6" d="m235.41,276.98h-20.16c-.81,0-1.46-.65-1.46-1.46s.65-1.46,1.46-1.46h20.16"/>
    <path class="cls-6" d="m227.64,269.62h-12.39c-.81,0-1.46-.65-1.46-1.46s.65-1.46,1.46-1.46h12.39c.81,0,1.46.65,1.46,1.46s-.65,1.46-1.46,1.46Z"/>
    <g>
      <path class="cls-6" d="m201.01,304.59c-4.72,0-8.7-3.67-9.01-8.45-.16-2.41.63-4.74,2.22-6.55,1.59-1.82,3.79-2.9,6.2-3.06,1.62-.11,3.23.22,4.67.95.72.36,1.01,1.24.64,1.96-.37.72-1.24,1.01-1.96.64-.97-.49-2.06-.71-3.16-.64-1.63.11-3.12.84-4.2,2.07-1.08,1.23-1.61,2.8-1.5,4.44.22,3.37,3.14,5.93,6.51,5.7,2.39-.16,4.48-1.71,5.33-3.95.28-.75,1.13-1.14,1.88-.85.75.28,1.14,1.13.85,1.88-1.25,3.31-4.34,5.6-7.87,5.83-.2.01-.4.02-.6.02Z"/>
      <path class="cls-6" d="m202.48,298.64c-.36,0-.72-.13-1.01-.4l-3.42-3.24c-.59-.56-.61-1.48-.05-2.06.56-.58,1.48-.61,2.06-.05l2.38,2.26,5.04-5.14c.56-.58,1.49-.59,2.07-.02.58.57.58,1.49.02,2.07l-6.04,6.16c-.29.29-.66.44-1.04.44Z"/>
    </g>
    <path class="cls-6" d="m235.41,300.7h-20.16c-.81,0-1.46-.65-1.46-1.46s.65-1.46,1.46-1.46h20.16"/>
    <path class="cls-6" d="m227.64,293.33h-12.39c-.81,0-1.46-.65-1.46-1.46s.65-1.46,1.46-1.46h12.39c.81,0,1.46.65,1.46,1.46s-.65,1.46-1.46,1.46Z"/>
    <path class="cls-6" d="m201.01,328.31c-4.72,0-8.7-3.67-9.01-8.45-.33-4.97,3.45-9.29,8.43-9.62,1.62-.11,3.23.22,4.67.95.72.36,1.01,1.24.64,1.96-.36.72-1.24,1.01-1.96.64-.97-.49-2.07-.72-3.16-.64-3.37.22-5.93,3.14-5.7,6.51.22,3.37,3.14,5.93,6.51,5.7,2.39-.16,4.48-1.71,5.33-3.95.28-.75,1.13-1.14,1.88-.85.75.28,1.14,1.13.85,1.88-1.25,3.31-4.34,5.6-7.87,5.83"/>
    <path class="cls-6" d="m202.48,322.35c-.36,0-.72-.13-1.01-.4l-3.42-3.24c-.59-.56-.61-1.48-.05-2.06.56-.58,1.48-.61,2.06-.05l2.38,2.26,5.04-5.14c.56-.58,1.49-.58,2.07-.02.58.57.58,1.49.02,2.07l-6.04,6.16c-.29.29-.66.44-1.04.44Z"/>
    <path class="cls-6" d="m235.41,324.41h-20.16c-.81,0-1.46-.65-1.46-1.46s.65-1.46,1.46-1.46h20.16"/>
    <path class="cls-6" d="m227.64,317.05h-12.39c-.81,0-1.46-.65-1.46-1.46s.65-1.46,1.46-1.46h12.39c.81,0,1.46.65,1.46,1.46s-.65,1.46-1.46,1.46Z"/>
  </g>
  <rect class="cls-2" x="553.54" y="72.5" width="285" height="285" rx="29.63" ry="29.63"/>
  <g>
    <path class="cls-6" d="m612.76,113.64v9.02h-4.16v-22.72h9.34c4.86,0,7.52,3.14,7.52,6.66,0,2.46-1.34,4.48-3.55,5.7,1.5,1.02,2.18,2.43,2.4,4l.32,2.24c.22,1.63.67,2.78,1.47,4.13h-4.42c-.7-1.06-1.06-2.18-1.28-3.71l-.35-2.37c-.26-1.76-.86-2.94-3.2-2.94h-4.1Zm0-9.86v6.3h5.15c2.21,0,3.33-1.47,3.33-3.17s-1.22-3.14-3.42-3.14h-5.06Z"/>
    <path class="cls-6" d="m634.36,117.35l-3.33,5.31h-4.29l5.54-8.48-5.02-7.68h4.74l2.91,4.48,2.82-4.48h4.32l-5.02,7.68,5.54,8.48h-4.7l-3.49-5.31Z"/>
    <path class="cls-6" d="m655.39,121.22v8.16h-4.03v-22.88h3.78v1.76c1.15-1.38,2.78-2.24,5.02-2.24,4.42,0,7.58,3.52,7.58,8.58s-3.17,8.54-7.68,8.54c-1.98,0-3.55-.7-4.67-1.92Zm4-1.6c2.43,0,4.26-2.02,4.26-5.02s-1.82-5.12-4.26-5.12-4.29,2.05-4.29,5.12c0,2.91,1.79,5.02,4.29,5.02Z"/>
    <path class="cls-6" d="m670.78,122.66v-16.16h3.84v2.27c.86-1.73,2.72-2.75,5.15-2.75l-.16,3.97c-3.33.06-4.8,1.38-4.8,3.97v8.7h-4.03Z"/>
    <path class="cls-6" d="m689.24,106.02c4.77,0,8.19,3.55,8.19,8.54s-3.42,8.58-8.19,8.58-8.19-3.52-8.19-8.58,3.42-8.54,8.19-8.54Zm0,13.7c2.43,0,4.1-2.11,4.1-5.15s-1.66-5.12-4.1-5.12-4.1,2.11-4.1,5.12,1.66,5.15,4.1,5.15Z"/>
    <path class="cls-6" d="m704.28,122.66l-5.89-16.16h4.38l3.71,11.55,3.71-11.55h4.19l-5.89,16.16h-4.22Z"/>
    <path class="cls-6" d="m718.49,99.02c1.31,0,2.4,1.09,2.4,2.4s-1.09,2.43-2.4,2.43-2.4-1.12-2.4-2.43,1.06-2.4,2.4-2.4Zm-2.02,7.49h4.03v16.16h-4.03v-16.16Z"/>
    <path class="cls-6" d="m736.15,120.9c-1.15,1.38-2.78,2.24-5.02,2.24-4.42,0-7.58-3.52-7.58-8.58s3.17-8.54,7.68-8.54c1.98,0,3.55.7,4.67,1.92v-8h4.03v22.72h-3.78v-1.76Zm-4.26-1.22c2.5,0,4.29-2.05,4.29-5.12,0-2.91-1.79-5.02-4.29-5.02s-4.26,2.02-4.26,5.02,1.82,5.12,4.26,5.12Z"/>
    <path class="cls-6" d="m751.1,123.14c-4.77,0-8.13-3.52-8.13-8.58s3.36-8.54,8.06-8.54,7.58,3.55,7.58,8.54v1.31h-11.55c.42,2.3,1.98,3.84,4.03,3.84,1.41,0,2.72-.7,3.81-2.3l3.14,1.86c-1.57,2.43-3.9,3.87-6.94,3.87Zm-4.06-10.01h7.52c-.32-2.43-1.5-3.74-3.58-3.74s-3.55,1.38-3.94,3.74Z"/>
    <path class="cls-6" d="m773.14,120.9c-1.15,1.38-2.78,2.24-5.02,2.24-4.42,0-7.58-3.52-7.58-8.58s3.17-8.54,7.68-8.54c1.98,0,3.55.7,4.67,1.92v-8h4.03v22.72h-3.78v-1.76Zm-4.26-1.22c2.5,0,4.29-2.05,4.29-5.12,0-2.91-1.79-5.02-4.29-5.02s-4.26,2.02-4.26,5.02,1.82,5.12,4.26,5.12Z"/>
    <path class="cls-6" d="m601.08,159.33v1.73h-3.78v-22.72h4.03v8.03c1.12-1.22,2.72-1.95,4.77-1.95,4.42,0,7.58,3.52,7.58,8.58s-3.17,8.54-7.68,8.54c-2.14,0-3.78-.8-4.93-2.21Zm4.26-1.31c2.43,0,4.26-2.02,4.26-5.02s-1.82-5.12-4.26-5.12-4.29,2.05-4.29,5.12c0,2.91,1.79,5.02,4.29,5.02Z"/>
    <path class="cls-6" d="m618.43,167.78l2.43-6.62-6.21-16.25h4.38l3.71,11.55,3.71-11.55h4.19l-8.19,22.88h-4.03Z"/>
    <path class="cls-6" d="m643.48,161.06h-4.03v-22.72h4.03v8.38c.9-1.41,2.43-2.3,4.48-2.3,2.98,0,5.86,1.95,5.86,6.3v10.33h-4.03v-9.38c0-2.34-.96-3.55-2.98-3.55s-3.33,1.47-3.33,3.84v9.09Z"/>
    <path class="cls-6" d="m664.82,161.54c-4.77,0-8.13-3.52-8.13-8.58s3.36-8.54,8.06-8.54,7.58,3.55,7.58,8.54v1.31h-11.55c.42,2.3,1.98,3.84,4.03,3.84,1.41,0,2.72-.7,3.81-2.3l3.14,1.86c-1.57,2.43-3.9,3.87-6.94,3.87Zm-4.06-10.01h7.52c-.32-2.43-1.5-3.74-3.58-3.74s-3.55,1.38-3.94,3.74Z"/>
    <path class="cls-6" d="m684.67,159.33c-1.09,1.15-3.07,2.21-5.25,2.21-2.59,0-5.15-1.54-5.15-4.64,0-4.13,4.54-6.05,10.21-6.21v-.32c0-1.63-1.28-2.5-2.91-2.5-1.28,0-2.69.51-4.03,2.02l-2.69-2.24c1.44-1.86,3.87-3.23,6.88-3.23,4.06,0,6.72,1.82,6.72,6.69v9.95h-3.78v-1.73Zm-.19-4.83v-.83c-5.22.16-6.11,1.92-6.11,2.91,0,1.22.99,1.76,2.18,1.76,1.73,0,3.94-1.44,3.94-3.84Z"/>
    <path class="cls-6" d="m692.28,138.34h4.03v22.72h-4.03v-22.72Z"/>
    <path class="cls-6" d="m706.84,161.54c-4.16,0-5.73-2.62-5.73-5.92v-7.58h-2.4v-3.14h2.4v-5.28h4.03v5.28h3.87v3.14h-3.87v7.65c0,1.76.74,2.4,2.14,2.4.48,0,1.02-.06,1.41-.13l.29,3.39c-.77.13-1.47.19-2.14.19Z"/>
    <path class="cls-6" d="m715.77,161.06h-4.03v-22.72h4.03v8.38c.9-1.41,2.43-2.3,4.48-2.3,2.98,0,5.86,1.95,5.86,6.3v10.33h-4.03v-9.38c0-2.34-.96-3.55-2.98-3.55s-3.33,1.47-3.33,3.84v9.09Z"/>
    <path class="cls-6" d="m737.08,144.42c2.94,0,5.06,1.38,6.56,3.71l-3.14,1.86c-.96-1.44-2.08-2.05-3.49-2.05-2.4,0-3.94,2.02-3.94,5.02s1.54,5.06,3.94,5.06c1.47,0,2.66-.67,3.65-2.05l3.14,1.86c-1.57,2.27-3.78,3.71-6.72,3.71-4.67,0-8.1-3.52-8.1-8.58s3.42-8.54,8.1-8.54Z"/>
    <path class="cls-6" d="m755.64,159.33c-1.09,1.15-3.07,2.21-5.25,2.21-2.59,0-5.15-1.54-5.15-4.64,0-4.13,4.54-6.05,10.21-6.21v-.32c0-1.63-1.28-2.5-2.91-2.5-1.28,0-2.69.51-4.03,2.02l-2.69-2.24c1.44-1.86,3.87-3.23,6.88-3.23,4.06,0,6.72,1.82,6.72,6.69v9.95h-3.78v-1.73Zm-.19-4.83v-.83c-5.22.16-6.11,1.92-6.11,2.91,0,1.22.99,1.76,2.18,1.76,1.73,0,3.94-1.44,3.94-3.84Z"/>
    <path class="cls-6" d="m763.26,161.06v-16.16h3.84v2.27c.86-1.73,2.72-2.75,5.15-2.75l-.16,3.97c-3.33.06-4.8,1.38-4.8,3.97v8.7h-4.03Z"/>
    <path class="cls-6" d="m781.66,161.54c-4.77,0-8.13-3.52-8.13-8.58s3.36-8.54,8.06-8.54,7.58,3.55,7.58,8.54v1.31h-11.55c.42,2.3,1.98,3.84,4.03,3.84,1.41,0,2.72-.7,3.81-2.3l3.14,1.86c-1.57,2.43-3.9,3.87-6.94,3.87Zm-4.06-10.01h7.52c-.32-2.43-1.5-3.74-3.58-3.74s-3.55,1.38-3.94,3.74Z"/>
    <path class="cls-6" d="m641.31,198.02v8.16h-4.03v-22.88h3.78v1.76c1.15-1.38,2.78-2.24,5.02-2.24,4.42,0,7.58,3.52,7.58,8.58s-3.17,8.54-7.68,8.54c-1.98,0-3.55-.7-4.67-1.92Zm4-1.6c2.43,0,4.26-2.02,4.26-5.02s-1.82-5.12-4.26-5.12-4.29,2.05-4.29,5.12c0,2.91,1.79,5.02,4.29,5.02Z"/>
    <path class="cls-6" d="m656.7,199.46v-16.16h3.84v2.27c.86-1.73,2.72-2.75,5.15-2.75l-.16,3.97c-3.33.06-4.8,1.38-4.8,3.97v8.7h-4.03Z"/>
    <path class="cls-6" d="m675.16,182.82c4.77,0,8.19,3.55,8.19,8.54s-3.42,8.58-8.19,8.58-8.19-3.52-8.19-8.58,3.42-8.54,8.19-8.54Zm0,13.7c2.43,0,4.1-2.11,4.1-5.15s-1.66-5.12-4.1-5.12-4.1,2.11-4.1,5.12,1.66,5.15,4.1,5.15Z"/>
    <path class="cls-6" d="m690.2,199.46l-5.89-16.16h4.38l3.71,11.55,3.71-11.55h4.19l-5.89,16.16h-4.22Z"/>
    <path class="cls-6" d="m704.41,175.81c1.31,0,2.4,1.09,2.4,2.4s-1.09,2.43-2.4,2.43-2.4-1.12-2.4-2.43,1.06-2.4,2.4-2.4Zm-2.02,7.49h4.03v16.16h-4.03v-16.16Z"/>
    <path class="cls-6" d="m722.07,197.7c-1.15,1.38-2.78,2.24-5.02,2.24-4.42,0-7.58-3.52-7.58-8.58s3.17-8.54,7.68-8.54c1.98,0,3.55.7,4.67,1.92v-8h4.03v22.72h-3.78v-1.76Zm-4.26-1.22c2.5,0,4.29-2.05,4.29-5.12,0-2.91-1.79-5.02-4.29-5.02s-4.26,2.02-4.26,5.02,1.82,5.12,4.26,5.12Z"/>
    <path class="cls-6" d="m737.02,199.94c-4.77,0-8.13-3.52-8.13-8.58s3.36-8.54,8.06-8.54,7.58,3.55,7.58,8.54v1.31h-11.55c.42,2.3,1.98,3.84,4.03,3.84,1.41,0,2.72-.7,3.81-2.3l3.14,1.86c-1.57,2.43-3.9,3.87-6.94,3.87Zm-4.06-10.01h7.52c-.32-2.43-1.5-3.74-3.58-3.74s-3.55,1.38-3.94,3.74Z"/>
    <path class="cls-6" d="m747.58,199.46v-16.16h3.84v2.27c.86-1.73,2.72-2.75,5.15-2.75l-.16,3.97c-3.33.06-4.8,1.38-4.8,3.97v8.7h-4.03Z"/>
  </g>
  <g>
    <path class="cls-6" d="m723.71,329.85h-8.41c-.62,0-1.2-.29-1.58-.78-.38-.49-.5-1.13-.34-1.73l1.83-6.63h-6.54c-.62,0-1.2-.29-1.58-.78-.38-.49-.5-1.13-.34-1.73l2.31-8.41c.24-.86,1.02-1.46,1.91-1.46h7.63l2.12-7.69c.24-.86,1.02-1.46,1.91-1.46h8.41c.62,0,1.2.29,1.58.78.38.49.5,1.13.34,1.73l-1.83,6.63h6.54c.62,0,1.2.29,1.58.78.38.49.5,1.13.34,1.73l-2.31,8.41c-.24.86-1.02,1.46-1.91,1.46h-7.63l-2.12,7.69c-.24.86-1.02,1.46-1.91,1.46Zm-5.8-3.97h4.29l2.12-7.69c.24-.86,1.02-1.46,1.91-1.46h7.63l1.22-4.44h-6.54c-.62,0-1.2-.29-1.58-.78s-.5-1.13-.34-1.73l1.83-6.63h-4.29l-2.11,7.69c-.24.86-1.02,1.46-1.91,1.46h-7.63l-1.22,4.44h6.54c.62,0,1.2.29,1.58.78s.5,1.13.34,1.73l-1.83,6.63Z"/>
    <g>
      <g>
        <g>
          <path class="cls-6" d="m686.03,324.75s-.03,0-.05,0l-24.53-.63c-.54-.01-1.05-.25-1.41-.65-.36-.4-.55-.93-.51-1.47l.83-12.49c.07-1.09,1.03-1.93,2.11-1.85,1.09.07,1.92,1.02,1.85,2.11l-.69,10.43,22.47.58c1.09.03,1.96.94,1.93,2.03-.03,1.08-.91,1.93-1.98,1.93Z"/>
          <path class="cls-6" d="m682.51,338.1h-29.46c-7.76,0-14.13-6.07-14.51-13.81-.48-9.86.58-19.69,3.15-29.21l.11-.41c1.48-5.48,6.07-9.62,11.68-10.54l20.35-3.33c.44-.07.9,0,1.28.22l10.85,6.05,10.85-6.05c.39-.22.84-.3,1.28-.22l15.09,2.47c1.08.18,1.81,1.2,1.64,2.28-.18,1.08-1.19,1.82-2.28,1.64l-14.41-2.36-11.21,6.25c-.6.33-1.33.33-1.93,0l-11.21-6.25-19.67,3.22c-4.08.67-7.41,3.68-8.49,7.66l-.11.41c-2.47,9.12-3.48,18.53-3.02,27.98.28,5.63,4.91,10.04,10.55,10.04h29.46c1.1,0,1.98.89,1.98,1.98s-.89,1.98-1.98,1.98Z"/>
          <path class="cls-6" d="m674.15,284.74c-.26,0-.52-.05-.78-.16-1.01-.43-1.47-1.6-1.04-2.6l1.7-3.97c.43-1.01,1.6-1.47,2.6-1.04,1.01.43,1.47,1.6,1.04,2.6l-1.7,3.97c-.32.75-1.05,1.2-1.82,1.2Z"/>
          <path class="cls-6" d="m697.78,284.74c-.77,0-1.5-.45-1.83-1.2l-1.7-3.97c-.43-1.01.04-2.17,1.04-2.6,1.01-.43,2.17.04,2.6,1.04l1.7,3.97c.43,1.01-.04,2.17-1.04,2.6-.25.11-.52.16-.78.16Z"/>
        </g>
        <path class="cls-6" d="m685.97,277.5c-9.57,0-15.45-8.74-17.72-16.55-1.93-1.63-2.7-5.45-3-7.8,0-.04,0-.08-.01-.12-.17-2.64.56-4.56,2.16-5.73-.09-3.8.2-14.21,5.88-16.97.04-.04.07-.12.11-.19.85-1.78,2.16-2.84,6.66-3.36,5.63-.64,13.45.45,17.53,3.78l.15.13c2.59,2.12,6.87,5.61,6.77,16.6,1.61,1.17,2.35,3.09,2.18,5.74-.28,2.41-1,6.19-2.86,7.84-2.15,8.18-7.9,16.63-17.86,16.63Zm-15.24-19.64c.57.24.99.73,1.15,1.33,1.74,6.62,6.47,14.35,14.09,14.35,10.01,0,13.39-10.98,14.19-14.34.14-.6.56-1.1,1.12-1.35.51-.56,1.21-3.02,1.46-5.17.12-1.95-.49-2.19-.98-2.39-.78-.31-1.27-1.08-1.24-1.91.37-9.99-3.04-12.77-5.29-14.61l-.16-.13c-2.7-2.21-9.24-3.52-14.56-2.91-3.16.36-3.4.86-3.53,1.13-.26.54-.69,1.44-1.95,2.05-3.3,1.6-3.85,10.4-3.6,14.41.05.85-.45,1.65-1.24,1.97-.49.2-1.09.44-.98,2.44.29,2.2,1,4.59,1.53,5.14Zm-.14-.05s0,0,0,0c0,0,0,0,0,0Zm30.84-.03h0s0,0,0,0Z"/>
        <path class="cls-6" d="m701.89,242.7c-.9,0-1.71-.61-1.93-1.53-.18-.75-.56-1.26-1.25-1.65-2.29-1.31-7.36-.93-13.56,1-5.82,1.82-10.17,1.7-12.94-.33-2.67-1.97-2.75-4.87-2.75-5.19,0-1.1.89-1.98,1.98-1.98h0c1.08,0,1.97.87,1.98,1.95,0,.1.08,1.28,1.18,2.06.96.68,3.46,1.55,9.36-.29,5.27-1.64,12.44-3.09,16.7-.66,1.63.93,2.72,2.38,3.15,4.18.25,1.07-.41,2.13-1.47,2.39-.15.04-.31.05-.46.05Zm-28.46-7.7h.01-.01Z"/>
      </g>
      <path class="cls-6" d="m749.72,338.1h-67.21c-.63,0-1.22-.3-1.6-.81-.37-.51-.48-1.16-.3-1.76l13.57-43.81c.26-.83,1.03-1.4,1.89-1.4h66.26c.62,0,1.21.29,1.58.79.37.5.49,1.14.32,1.74l-12.62,43.81c-.24.85-1.02,1.43-1.91,1.43Zm-64.52-3.97h63.03l11.48-39.84h-62.16l-12.34,39.84Z"/>
    </g>
  </g>
  <rect class="cls-2" x="1565.39" y="72.5" width="285" height="285" rx="29.63" ry="29.63"/>
  <text class="cls-7" transform="translate(1585.05 122.66)"><tspan x="0" y="0">POGO Automatic </tspan><tspan x="37.14" y="38.4">ships to you </tspan><tspan x="66.61" y="76.8">for free!</tspan></text>
  <g>
    <g>
      <path class="cls-6" d="m1686.98,338.1c-8.04,0-14.57-6.54-14.57-14.57s6.54-14.57,14.57-14.57,14.57,6.54,14.57,14.57-6.54,14.57-14.57,14.57Zm0-25.34c-5.94,0-10.77,4.83-10.77,10.77s4.83,10.77,10.77,10.77,10.77-4.83,10.77-10.77-4.83-10.77-10.77-10.77Z"/>
      <path class="cls-6" d="m1775.24,338.1c-8.04,0-14.57-6.54-14.57-14.57s6.54-14.57,14.57-14.57,14.57,6.54,14.57,14.57-6.54,14.57-14.57,14.57Zm0-25.34c-5.94,0-10.77,4.83-10.77,10.77s4.83,10.77,10.77,10.77,10.77-4.83,10.77-10.77-4.83-10.77-10.77-10.77Z"/>
    </g>
    <path class="cls-6" d="m1762.57,325.43h-54.97c-1.05,0-1.9-.85-1.9-1.9s.85-1.9,1.9-1.9h54.97c1.05,0,1.9.85,1.9,1.9s-.85,1.9-1.9,1.9Z"/>
    <path class="cls-6" d="m1795.24,325.43c-1.05,0-1.9-.85-1.9-1.9s.85-1.9,1.9-1.9c2.2,0,3.98-1.79,3.98-3.98v-14.71c0-3.86-2.07-7.47-5.4-9.42l-17.74-10.41c-.36-.21-.63-.53-.79-.91l-8.93-21.38c-1.37-3.27-4.54-5.39-8.08-5.39h-91.76c-3.49,0-6.34,2.84-6.34,6.34v53.57c0,3.47,2.82,6.28,6.28,6.28,1.05,0,1.9.85,1.9,1.9s-.85,1.9-1.9,1.9c-5.56,0-10.09-4.53-10.09-10.09v-53.57c0-5.59,4.55-10.14,10.14-10.14h91.76c5.08,0,9.64,3.03,11.6,7.72l8.68,20.79,17.19,10.08c4.49,2.63,7.28,7.5,7.28,12.7v14.71c0,4.29-3.49,7.79-7.79,7.79Z"/>
    <path class="cls-6" d="m1777.05,283.37h-29.22c-.9,0-1.68-.63-1.86-1.51l-3.96-18.73c-.22-1.03.44-2.04,1.47-2.26,1.02-.21,2.04.44,2.25,1.47l3.64,17.22h27.68c1.05,0,1.9.85,1.9,1.9s-.85,1.9-1.9,1.9Z"/>
    <text class="cls-5" transform="translate(1677.06 293.15)"><tspan x="0" y="0">FREE</tspan></text>
    <line class="cls-1" x1="1617.59" y1="264.6" x2="1655.75" y2="264.6"/>
    <line class="cls-1" x1="1636.67" y1="279.89" x2="1655.75" y2="279.89"/>
    <line class="cls-1" x1="1630.26" y1="293.15" x2="1655.75" y2="293.15"/>
    <line class="cls-1" x1="1612.74" y1="310.82" x2="1655.75" y2="310.82"/>
  </g>
</svg>