<?xml version="1.0" encoding="utf-8"?>
<!-- Generator: Adobe Illustrator 23.1.0, SVG Export Plug-In . SVG Version: 6.00 Build 0)  -->
<svg version="1.1"
	 id="Layer_1" shape-rendering="geometricPrecision" image-rendering="optimizeQuality" text-rendering="geometricPrecision"
	 xmlns="http://www.w3.org/2000/svg" xmlns:xlink="http://www.w3.org/1999/xlink" x="0px" y="0px" viewBox="0 0 650 511.6"
	 style="enable-background:new 0 0 650 511.6;" xml:space="preserve">
<style type="text/css">
	.st0{fill:#FFFFFF;}
</style>
<path class="st0" d="M13.7,161.6c-7.4,0-13.7-6.3-13.7-14.1c0-7.4,6.3-13.7,13.7-13.7h20.4c12.6,0.4,23.9,2.8,33.4,8.8
	c18.4,11.6,21.7,28.3,26.3,47.1h126.7c4.6,11.6,13,21.2,23.6,27.4h-61.1v0h-81.5l31.3,117.7h221.7l29.2-117.7h-72.3v0H301
	c10.6-6.3,19-15.9,23.6-27.4h76.6c7.7,0,13.7,6.3,13.7,13.7c0,1.4-0.4,2.8-0.7,4.2l-35.8,144.4c-1.4,6.3-7,10.5-13.4,10.5H140.2
	c4.9,18.3,9.8,28.1,16.5,32.7c8.1,5.3,22.1,5.6,45.7,5.3h159.2c7.7,0,13.7,6.3,13.7,13.7c0,7.7-6.3,13.7-13.7,13.7H202.8
	c-29.2,0.4-47.1-0.4-61.5-9.8c-14.8-9.8-22.5-26.7-30.2-57.3L64,182.7c0-0.4,0-0.4-0.3-0.7c-2.1-7.7-5.6-13-10.5-15.8
	c-4.9-3.2-11.6-4.6-19.3-4.6H13.7z M211.3,17.3c9.5-16.5,30.9-22.3,47.4-12.7c16.5,9.5,22.2,30.9,12.7,47.4
	c-19.7,34.2-39.4,68-59.1,102.2c-4.8,8.2-12.4,13.8-21,16.1c-8.5,2.3-18,1.3-26.2-3.4c-8.2-4.8-13.8-12.4-16.1-21
	c-2.3-8.5-1.3-18,3.4-26.2C172.1,85.4,191.5,51.5,211.3,17.3L211.3,17.3z M230.8,106.7L184.5,80l-25.1,43.5
	c-3.7,6.4-4.4,13.7-2.6,20.3c1.8,6.6,6.1,12.6,12.4,16.3c6.4,3.7,13.7,4.4,20.3,2.6c6.6-1.8,12.6-6.1,16.3-12.4L230.8,106.7
	L230.8,106.7z M304.4,155c4.8,9.6,5,21.2-0.6,31.3c-8.9,16.1-29.3,22-45.4,13c-4.8-2.6-8.6-6.3-11.5-10.4L304.4,155L304.4,155z
	 M245.3,153.9c8.9-16.1,29.3-22,45.4-13c4.4,2.4,8,5.7,10.8,9.5l-57.3,33.8C239.9,174.8,239.9,163.6,245.3,153.9L245.3,153.9z
	 M298.2,68.3c9-16.2,29.3-22,45.4-13c4.4,2.4,8,5.7,10.8,9.5l-57.3,33.8C292.8,89.2,292.8,78,298.2,68.3z M357.3,69.3
	c4.8,9.6,5,21.2-0.6,31.3c-8.9,16.1-29.3,22-45.4,13c-4.6-2.5-8.5-6.1-11.5-10.5L357.3,69.3z M285,246.1c0-4.3,4.3-7.9,9.6-7.9
	s9.6,3.5,9.6,7.9v53c0,4.3-4.3,7.8-9.6,7.8s-9.6-3.5-9.6-7.8V246.1z M227.7,246.1c0-4.3,4.3-7.9,9.6-7.9s9.6,3.5,9.6,7.9v53
	c0,4.3-4.3,7.8-9.6,7.8s-9.6-3.5-9.6-7.8V246.1z M170.5,246.1c0-4.3,4.3-7.9,9.6-7.9c5.3,0,9.6,3.5,9.6,7.9v53
	c0,4.3-4.3,7.8-9.6,7.8c-5.3,0-9.6-3.5-9.6-7.8V246.1z M320.5,444.2c18.6,0,33.7,15.1,33.7,33.7c0,18.6-15.1,33.7-33.7,33.7
	c-18.6,0-33.7-15.1-33.7-33.7C286.7,459.3,301.8,444.2,320.5,444.2z M172.5,444.2c18.6,0,33.7,15.1,33.7,33.7
	c0,18.6-15.1,33.7-33.7,33.7c-18.6,0-33.7-15.1-33.7-33.7C138.8,459.3,153.9,444.2,172.5,444.2z"/>
<polygon class="st0" points="638.3,233.7 565,233.7 565,160.4 522,160.4 522,233.7 448.7,233.7 448.7,276.7 522,276.7 522,350 
	565,350 565,276.7 638.3,276.7 "/>
</svg>
