<?xml version="1.0" encoding="utf-8"?>
<!-- Generator: Adobe Illustrator 23.1.0, SVG Export Plug-In . SVG Version: 6.00 Build 0)  -->
<svg version="1.1"
	 id="Layer_1" shape-rendering="geometricPrecision" image-rendering="optimizeQuality" text-rendering="geometricPrecision"
	 xmlns="http://www.w3.org/2000/svg" xmlns:xlink="http://www.w3.org/1999/xlink" x="0px" y="0px" viewBox="0 0 468 511.6"
	 style="enable-background:new 0 0 468 511.6;" xml:space="preserve">
<style type="text/css">
	.st0{fill:#FFFFFF;}
</style>
<path class="st0" d="M280,283.3c-0.1-30.5,0.6-60.9-0.4-91.4c-1.1-34.2-26.3-63.9-59.3-72.5c-4.4-1.1-10.7,0-12.7-3.3
	c-2.1-3.5-0.8-9.2-0.6-13.9c0.1-4.7-1.9-10.6,0.9-13.8c2.4-2.7,8.3-0.6,12.7-0.8c5.7-0.3,8.4-2.9,8.4-8.5c0.1-23.6,0.1-47.2,0-70.8
	c0-5.8-2.6-8.4-8.4-8.4C167.7,0,114.8,0,62,0c-5.8,0-8.5,2.5-8.5,8.2c-0.1,23.8-0.1,47.5,0,71.3c0,5.3,2.8,8,8.2,8.1
	c3.5,0.1,7,0.2,10.6,0c2.6-0.1,3.3,0.9,3.2,3.4c-0.2,4.9,0,9.9-0.1,14.8c0,3.7,0.9,8.1-0.8,10.8c-1.2,1.9-6.1,1.5-9.3,2.2
	c-0.3,0.1-0.7,0.2-1,0.3c-37.4,9.1-61.9,40.6-62,80.1c-0.1,50.4,0,100.7,0,151.1c0,40.8-0.1,81.7,0,122.5
	c0,23.8,15.2,38.9,38.9,38.9c66.7,0,133.4,0,200.2,0c3,0,6,0,8.9-0.6c18.4-3.7,29.6-18.1,29.7-38.1c0.1-46.3,0-92.6,0-138.9
	C280,317.1,280.1,300.2,280,283.3z M72,73.1c-3.5,0-3.9-1.2-3.9-4.2c0.1-16.7,0.2-33.4,0-50.2c-0.1-3.7,1.3-4.2,4.5-4.2
	c23.1,0.1,46.1,0.1,69.2,0.1c22.7,0,45.4,0.1,68.1-0.1c3.2,0,4.5,0.5,4.5,4.2c-0.2,16.7-0.2,33.4,0,50.2c0,3.1-0.5,4.2-3.9,4.2
	C164.2,73,118.1,73,72,73.1z M192.3,113.2c0.1,3.1-1,3.8-3.9,3.8c-31.5-0.1-63-0.1-94.5,0c-3.5,0-4-1.3-4-4.3c0.2-7,0.3-14.1,0-21.1
	c-0.2-3.6,1.3-3.9,4.2-3.9c15.7,0.1,31.3,0.1,47,0.1c15.5,0,31,0.2,46.4-0.1c4.1-0.1,5,1.2,4.8,5
	C192.1,99.4,192.1,106.3,192.3,113.2z M216.7,315.2c-13.2-0.1-26.4,0-39.6,0c-9.6,0-13.7,4.2-13.8,13.9c0,6.3,0,12.7,0,19
	c0,6.7,0,13.4,0,20.1c0,5.8-1.4,7.3-7.1,7.3c-10,0.1-20.1,0.1-30.1,0c-5.5,0-7.2-1.8-7.2-7.3c-0.1-12.8,0-25.7,0-38.5
	c0-10.6-3.7-14.4-14.2-14.4c-12.7,0-25.3,0-38,0c-6.6,0-8.1-1.6-8.1-8c0-9.5,0-19,0-28.5c0-6.7,1.2-7.8,8.1-7.9
	c12.9,0,25.7,0,38.6,0c9.3,0,13.6-4.3,13.6-13.5c0-13,0-26.1,0-39.1c0-6.5,1.3-7.7,7.7-7.8c9.9,0,19.7-0.1,29.6,0
	c5.9,0,7.1,1.2,7.1,7.2c0,12.7,0,25.3,0,38c0,10.9,4.1,15.1,14.9,15.1c12.7,0,25.3,0,38,0c6.3,0,7.4,1.1,7.5,7.4
	c0.1,10-0.1,20.1,0.1,30.1C223.8,313.2,221.5,315.2,216.7,315.2z"/>
<path class="st0" d="M336.2,255.3c-67.3,0-121.9,54.6-121.9,121.9s54.6,121.9,121.9,121.9s121.9-54.6,121.9-121.9
	S403.5,255.3,336.2,255.3z M388.7,431.9c0,6-1.6,7.5-7.6,7.6c-7.7,0.1-15.5,0-23.2,0c-7.7,0-15.5,0.1-23.2,0
	c-3.2-0.1-4.5,1.1-4.2,4.3c0.2,2.3,0,4.6,0,6.9c0.1,3-1.3,5.2-3.9,6.3c-2.5,1-5.3,0.9-7.4-1.1c-11.2-11.2-22.5-22.3-33.5-33.7
	c-2.9-2.9-2.6-6.6,0.3-9.5c11-11.2,22.1-22.2,33.2-33.2c2-2,4.5-2.7,7.3-1.4c2.6,1.2,3.9,3.2,4.2,6.2c0.2,3.6-1.7,8.2,1.1,10.6
	c2.8,2.4,7.4,0.8,11.3,0.8c12.7,0.1,25.3,0,38,0.1c6.4,0,7.8,1.5,7.9,7.8C388.8,412.9,388.8,422.4,388.7,431.9z M386.7,337.8
	c-11.1,11.3-22.3,22.4-33.6,33.6c-1.8,1.8-4.1,2.7-6.7,1.5c-2.8-1.3-4.4-3.3-4.6-6.5c-0.2-3.5,1.6-8-0.9-10.1
	c-2.8-2.3-7.4-0.7-11.3-0.7c-12.1-0.1-24.3,0-36.4-0.1c-7.8,0-9.6-1.9-9.6-9.6c0-8.8,0-17.6,0-26.4c0-6.4,1.8-8.2,8.1-8.3
	c7.6-0.1,15.1,0,22.7,0c7.7,0,15.5-0.1,23.2,0.1c3.1,0.1,4.6-0.7,4.3-4.1c-0.2-2.6-0.3-5.3,0.1-7.9c0.8-5.7,6.9-8.4,11-4.4
	c11.5,11.1,22.8,22.5,34,33.9C389.5,331.4,389.4,335.1,386.7,337.8z"/>
</svg>
